<svg width="303" height="309" viewBox="0 0 303 309" fill="none" xmlns="http://www.w3.org/2000/svg">
<path d="M273.825 16.3158C272.812 15.9695 271.939 15.3029 271.34 14.417C271.043 13.9702 270.816 13.4813 270.665 12.9668C270.512 12.4525 270.421 11.9216 270.396 11.3856C270.352 10.3111 270.494 9.23706 270.817 8.21112C271.137 7.18237 271.6 6.20364 272.193 5.30363C273.388 3.47777 275.069 2.02019 277.047 1.09422C278.04 0.632584 279.094 0.313553 280.177 0.146591C281.261 -0.017334 282.362 -0.0454712 283.453 0.0628357C285.646 0.277206 287.761 0.98999 289.635 2.14658C291.495 3.31039 293.13 4.79892 294.461 6.54095C295.785 8.26561 296.884 10.1509 297.733 12.1518C298.58 14.1345 299.243 16.1908 299.712 18.2948C300.661 22.5007 300.923 26.8288 300.694 31.115C300.441 35.4053 299.706 39.6536 298.502 43.7799C298.21 44.813 297.875 45.8357 297.529 46.8479C297.183 47.8601 296.83 48.8531 296.452 49.8444L295.891 51.3365C295.716 51.8339 295.499 52.3226 295.304 52.8165L294.709 54.2946C294.514 54.7903 294.292 55.2719 294.085 55.7623L293.453 57.2248L293.134 57.956L292.799 58.6785L291.453 61.5668C290.5 63.4656 289.576 65.3783 288.543 67.2352C286.557 70.9909 284.348 74.6191 282.096 78.2159C281.527 79.1112 280.929 79.9873 280.348 80.8721C279.768 81.7569 279.177 82.6418 278.58 83.5178C277.347 85.2438 276.132 86.9803 274.884 88.6976C269.868 95.5422 264.385 102.026 258.648 108.259L256.5 110.6C256.15 110.996 255.769 111.368 255.402 111.748L254.292 112.884L249.86 117.422C246.925 120.35 244.147 123.43 241.538 126.65C236.32 133.071 231.809 140.057 228.315 147.524C224.787 154.984 222.309 162.894 220.951 171.03C219.6 179.181 219.299 187.471 220.056 195.699L220.197 197.243C220.243 197.758 220.314 198.271 220.372 198.784L220.547 200.325L220.767 201.861C221.054 203.912 221.435 205.917 221.879 207.924C221.984 208.426 222.124 208.92 222.244 209.419C222.365 209.919 222.489 210.416 222.627 210.91L223.057 212.386L223.272 213.124C223.344 213.37 223.431 213.611 223.51 213.856L223.994 215.316L224.114 215.681L224.249 216.041L224.518 216.761C224.693 217.24 224.868 217.723 225.064 218.199L225.656 219.617C227.252 223.391 229.228 226.993 231.554 230.369C231.831 230.798 232.146 231.201 232.447 231.615L232.899 232.233C233.052 232.438 233.2 232.646 233.364 232.842L234.322 234.037L234.562 234.335C234.644 234.433 234.737 234.527 234.813 234.623L235.319 235.199L235.824 235.775L236.075 236.061L236.341 236.337L237.4 237.44C237.575 237.629 237.762 237.789 237.946 237.974L238.5 238.498L239.054 239.021C239.239 239.196 239.437 239.355 239.627 239.524C242.679 242.212 246.095 244.486 249.812 246.091C251.662 246.905 253.588 247.532 255.563 247.962L256.302 248.121L256.673 248.199L257.047 248.253L258.541 248.477L260.046 248.599L260.424 248.63H260.801L261.557 248.641L262.312 248.653L263.067 248.613L263.822 248.573L264.199 248.554C264.325 248.545 264.449 248.524 264.575 248.51L266.078 248.325C266.327 248.292 266.566 248.241 266.811 248.199C267.056 248.157 267.292 248.095 267.533 248.044C268.488 247.818 269.42 247.506 270.317 247.11C271.205 246.713 272.05 246.224 272.838 245.653C273.623 245.085 274.339 244.427 274.97 243.691C275.605 242.958 276.148 242.151 276.587 241.287C277.476 239.547 277.931 237.618 277.914 235.665C277.896 233.702 277.384 231.774 276.426 230.06C276.185 229.632 275.919 229.22 275.629 228.824C275.334 228.431 275.015 228.056 274.675 227.7C273.989 226.984 273.219 226.353 272.381 225.822C270.668 224.752 268.762 224.023 266.771 223.678C265.763 223.496 264.745 223.385 263.722 223.344C263.198 223.311 262.703 223.344 262.195 223.344C262.068 223.345 261.942 223.354 261.817 223.37L261.441 223.409C261.19 223.428 260.94 223.461 260.693 223.51C260.447 223.559 260.198 223.603 259.954 223.655L259.232 223.866C259.172 223.884 259.111 223.897 259.057 223.92L258.882 223.99L258.533 224.128C258.417 224.178 258.297 224.215 258.183 224.274L257.853 224.449C256.969 224.905 256.189 225.539 255.565 226.313C254.943 227.091 254.514 228.005 254.313 228.979C254.106 229.968 254.147 230.993 254.431 231.962C254.716 232.931 255.235 233.815 255.944 234.536C256.665 235.271 257.532 235.847 258.489 236.227C259.461 236.605 260.486 236.828 261.527 236.889C261.787 236.901 262.051 236.922 262.312 236.929L263.098 236.906C263.229 236.906 263.36 236.906 263.492 236.89L263.883 236.849L264.668 236.763L263.888 236.887L263.497 236.95C263.367 236.971 263.235 236.972 263.104 236.985L262.313 237.047C262.05 237.047 261.789 237.047 261.52 237.047C261.387 237.047 261.254 237.047 261.121 237.047L260.725 237.007L260.328 236.969L260.13 236.948L259.935 236.91C259.674 236.856 259.41 236.808 259.15 236.751L258.382 236.515C257.36 236.16 256.424 235.595 255.633 234.857C254.826 234.103 254.219 233.16 253.867 232.114C253.516 231.067 253.431 229.95 253.619 228.863C253.803 227.762 254.245 226.721 254.908 225.822C255.575 224.928 256.421 224.182 257.393 223.632L257.755 223.425C257.875 223.355 258.007 223.308 258.131 223.25L258.51 223.076L258.7 222.992C258.765 222.966 258.832 222.946 258.896 222.924L259.683 222.662C259.949 222.594 260.218 222.536 260.485 222.473C260.752 222.409 261.023 222.361 261.296 222.33L261.703 222.273C261.839 222.251 261.975 222.237 262.112 222.231C262.656 222.201 263.207 222.156 263.743 222.17C264.827 222.171 265.909 222.251 266.98 222.411C269.162 222.718 271.263 223.445 273.166 224.552C273.645 224.836 274.107 225.147 274.551 225.482C274.992 225.824 275.413 226.191 275.811 226.582C276.615 227.366 277.314 228.251 277.891 229.215C279.055 231.158 279.71 233.363 279.796 235.625C279.919 239.056 278.787 242.413 276.611 245.072C275.895 245.953 275.077 246.748 274.175 247.438C273.276 248.129 272.306 248.723 271.282 249.21C270.262 249.688 269.201 250.072 268.111 250.356C267.839 250.421 267.568 250.496 267.295 250.552C267.022 250.608 266.746 250.67 266.473 250.714L264.846 250.953C264.71 250.971 264.575 250.995 264.439 251.007L264.028 251.04L263.207 251.103L262.387 251.164H261.562H260.739H260.326L259.915 251.14L258.271 251.044L256.634 250.838L256.227 250.786L255.822 250.709L255.014 250.554C252.858 250.129 250.75 249.492 248.722 248.65C244.689 246.974 240.949 244.669 237.643 241.819C237.437 241.644 237.222 241.47 237.021 241.295L236.423 240.744L235.824 240.192C235.624 240.007 235.42 239.828 235.233 239.632L234.086 238.477L233.798 238.189L233.523 237.889L232.978 237.287L232.431 236.684C232.342 236.583 232.256 236.486 232.16 236.383L231.901 236.07L230.863 234.821C230.688 234.615 230.526 234.398 230.361 234.182L229.87 233.536C229.547 233.103 229.206 232.681 228.905 232.233C226.404 228.707 224.271 224.935 222.538 220.976C220.8 217.029 219.425 212.931 218.43 208.735L218.081 207.165L217.906 206.376C217.852 206.112 217.808 205.852 217.757 205.583C217.567 204.524 217.357 203.463 217.21 202.409L216.971 200.826L216.766 199.236C216.703 198.713 216.625 198.177 216.574 197.645L216.411 196.049L216.331 195.252L216.27 194.453L216.149 192.852C216.102 192.32 216.088 191.784 216.06 191.25L215.985 189.646L215.952 188.041C215.952 187.507 215.922 186.971 215.929 186.435L215.941 184.83V184.027C215.941 183.758 215.959 183.491 215.967 183.224C216.094 178.936 216.502 174.661 217.191 170.427C218.587 161.942 221.155 153.692 224.821 145.912C228.475 138.144 233.169 130.903 238.584 124.272C241.292 120.966 244.173 117.805 247.215 114.802L251.63 110.333L252.731 109.218C253.098 108.844 253.474 108.481 253.826 108.095L255.965 105.804C261.699 99.7262 267.105 93.3477 272.159 86.6958C277.213 80.056 281.801 73.0755 285.891 65.8042C286.94 63.9996 287.868 62.1392 288.842 60.2981L290.215 57.4936L290.565 56.7955L290.89 56.0869L291.537 54.6663C291.75 54.1899 291.977 53.7222 292.177 53.2405L292.787 51.8042C292.988 51.3243 293.201 50.8496 293.391 50.3662L293.97 48.9142C294.164 48.4325 294.355 47.9474 294.536 47.4587L295.089 45.9962C295.438 45.0277 295.788 44.0591 296.092 43.0748C297.333 39.1444 298.133 35.0888 298.48 30.9824C298.838 26.8802 298.633 22.7484 297.871 18.7015C297.484 16.6889 296.912 14.7161 296.164 12.808C295.421 10.9087 294.446 9.10904 293.259 7.45024C292.083 5.80011 290.619 4.3748 288.938 3.24257C287.251 2.12206 285.331 1.39774 283.323 1.12392C281.313 0.828659 279.26 1.08005 277.38 1.85165C275.966 2.46019 274.691 3.3511 273.634 4.46965C272.578 5.5882 271.761 6.91075 271.235 8.35597C270.881 9.32655 270.699 10.351 270.696 11.3839C270.698 11.8999 270.762 12.4138 270.887 12.9144C271.01 13.4172 271.209 13.8985 271.476 14.342C272.024 15.237 272.848 15.9297 273.825 16.3158Z" fill="white"/>
<path d="M277.797 78.3905L277.9 78.1566L278.01 77.8913C278.083 77.7168 278.155 77.5283 278.225 77.3433C278.367 76.9751 278.501 76.5982 278.632 76.2194C278.889 75.462 279.122 74.6906 279.332 73.9158C279.756 72.358 280.093 70.7779 280.342 69.1828C280.844 65.9978 280.94 62.762 280.627 59.5529C280.472 57.9564 280.195 56.3741 279.798 54.8199C279.711 54.4273 279.592 54.045 279.48 53.6611C279.368 53.2771 279.262 52.8897 279.122 52.5145C278.982 52.1393 278.861 51.7571 278.723 51.3819L278.271 50.2684L278.157 49.9892L278.029 49.717L277.774 49.1725L277.521 48.628C277.437 48.4535 277.334 48.2789 277.241 48.1044L276.673 47.0433L276.047 46.0119C273.529 41.9042 269.871 38.6137 265.518 36.539C262.618 35.1504 259.467 34.3609 256.254 34.2179C254.655 34.1483 253.053 34.2578 251.478 34.5443C249.907 34.832 248.377 35.3096 246.922 35.9666C245.466 36.6257 244.1 37.4679 242.858 38.4727C242.24 38.9812 241.653 39.5254 241.099 40.1027C240.548 40.685 240.032 41.2998 239.554 41.9439C239.076 42.593 238.635 43.2683 238.233 43.9666C237.834 44.6647 237.471 45.3872 237.142 46.1341C236.493 47.6246 235.99 49.1747 235.641 50.7624C235.474 51.5518 235.357 52.3509 235.291 53.155C235.247 53.5564 235.249 53.9578 235.232 54.3592C235.232 54.5599 235.232 54.7606 235.232 54.9613V55.2632L235.252 55.5616C235.302 56.3617 235.419 57.1562 235.602 57.9368C235.653 58.1305 235.688 58.3277 235.747 58.518L235.922 59.0939C236.053 59.4709 236.181 59.8513 236.343 60.216C236.967 61.699 237.844 63.0621 238.937 64.244C240.038 65.4336 241.322 66.4399 242.741 67.2247C244.165 68.0168 245.703 68.5837 247.301 68.9053C248.898 69.2356 250.541 69.2799 252.153 69.0362C253.76 68.8004 255.292 68.1992 256.63 67.2788C257.959 66.341 259.025 65.0794 259.729 63.6139C260.083 62.8758 260.357 62.1017 260.545 61.305C260.652 60.9089 260.72 60.5023 260.788 60.0956C260.856 59.689 260.9 59.2789 260.917 58.8653C261.036 57.2161 260.945 55.5355 260.475 53.9578C260.245 53.1707 259.895 52.4237 259.437 51.7431C258.972 51.066 258.378 50.4872 257.689 50.0398C256.313 49.1393 254.579 48.8513 252.94 49.0782C252.113 49.1877 251.309 49.4231 250.554 49.7763C249.793 50.1244 249.104 50.6095 248.519 51.2074C247.928 51.8031 247.516 52.553 247.331 53.3714C247.169 54.201 247.271 55.0604 247.624 55.8286C247.253 55.0627 247.13 54.1998 247.275 53.3609C247.444 52.5217 247.846 51.747 248.435 51.1254C249.018 50.5008 249.71 49.9884 250.479 49.614C251.244 49.233 252.063 48.9711 252.908 48.8374C253.756 48.6969 254.621 48.6969 255.469 48.8374C256.325 48.9771 257.145 49.2811 257.885 49.7327C258.625 50.1905 259.268 50.7902 259.776 51.4971C260.279 52.2038 260.668 52.9845 260.929 53.8112C261.454 55.4552 261.594 57.1916 261.513 58.8967C261.513 59.3242 261.449 59.7518 261.41 60.1794C261.342 60.6035 261.288 61.0311 261.186 61.4499C261.005 62.2981 260.735 63.1248 260.379 63.9159C259.654 65.5182 258.532 66.9097 257.119 67.9594C255.692 68.9913 254.047 69.6827 252.31 69.9804C250.586 70.2841 248.822 70.2788 247.1 69.9647C245.378 69.6612 243.713 69.0925 242.166 68.2788C240.608 67.4658 239.192 66.4081 237.971 65.1462C236.739 63.8746 235.738 62.3981 235.015 60.7832C234.828 60.3818 234.676 59.9665 234.52 59.5529L234.317 58.9211C234.247 58.7117 234.2 58.4953 234.143 58.2824C233.92 57.4275 233.771 56.5552 233.697 55.675L233.665 55.3452L233.651 55.0154C233.651 54.7955 233.629 54.5756 233.625 54.3557C233.625 53.9159 233.625 53.4744 233.658 53.0381C233.708 52.1598 233.814 51.2855 233.973 50.4203C234.305 48.7077 234.805 47.0318 235.466 45.4168C235.799 44.608 236.173 43.817 236.588 43.0469C237.008 42.2746 237.472 41.5265 237.976 40.806C238.993 39.3584 240.187 38.0433 241.531 36.8916C242.896 35.7404 244.403 34.7691 246.016 34.0015C247.619 33.2315 249.309 32.6589 251.05 32.2965C252.789 31.9388 254.562 31.7749 256.338 31.8078C259.891 31.8829 263.392 32.6736 266.631 34.1324C271.522 36.3283 275.673 39.8889 278.585 44.3854L279.297 45.4988L279.95 46.6489C280.055 46.8426 280.172 47.0294 280.268 47.2283L280.564 47.8199L280.859 48.4133L281.006 48.71L281.139 49.0119L281.663 50.2336C281.828 50.6419 281.976 51.0573 282.133 51.4709C282.291 51.8845 282.424 52.3051 282.558 52.7239C282.693 53.1428 282.833 53.5651 282.939 53.9927C283.416 55.6916 283.762 57.4243 283.974 59.1759C284.401 62.6691 284.382 66.2024 283.916 69.6907C283.688 71.4295 283.363 73.1541 282.941 74.8564C282.726 75.7081 282.492 76.5563 282.228 77.3975C282.093 77.8198 281.955 78.2404 281.805 78.661C281.73 78.8721 281.654 79.0816 281.572 79.2945L281.448 79.6156L281.382 79.7796L281.305 79.9542L277.797 78.3905Z" fill="white"/>
<path d="M251.208 110.83L251.557 110.656L251.891 110.495L252.557 110.188C253 109.989 253.444 109.796 253.889 109.61C254.778 109.234 255.674 108.885 256.577 108.563C258.385 107.9 260.218 107.318 262.078 106.818C265.813 105.792 269.654 105.193 273.525 105.034C277.412 104.905 281.391 105.324 285.15 106.589C288.937 107.842 292.373 109.972 295.178 112.804C295.353 112.978 295.528 113.153 295.69 113.327L296.194 113.87L296.673 114.434C296.832 114.621 296.993 114.807 297.139 115.003C297.442 115.39 297.748 115.774 298.027 116.179C298.307 116.584 298.585 116.987 298.854 117.401C298.992 117.603 299.113 117.818 299.24 118.027C299.368 118.237 299.497 118.446 299.614 118.662C299.849 119.095 300.092 119.523 300.301 119.968C300.739 120.849 301.126 121.754 301.458 122.68C302.79 126.385 303.268 130.341 302.857 134.256C302.451 138.136 301.255 141.891 299.342 145.292C297.453 148.695 294.866 151.66 291.749 153.994C290.965 154.572 290.148 155.103 289.302 155.586C288.454 156.065 287.579 156.493 286.68 156.868C285.778 157.236 284.854 157.547 283.913 157.8C282.971 158.048 282.013 158.231 281.046 158.348C279.113 158.582 277.157 158.545 275.234 158.238L274.518 158.116L273.808 157.962C273.57 157.915 273.338 157.853 273.109 157.788C272.88 157.723 272.641 157.671 272.41 157.596C271.475 157.322 270.564 156.972 269.687 156.549C267.928 155.697 266.331 154.547 264.967 153.149C263.615 151.758 262.501 150.152 261.672 148.399C260.844 146.659 260.282 144.804 260.005 142.898C259.723 141 259.723 139.07 260.005 137.172C260.145 136.226 260.358 135.293 260.643 134.38C260.93 133.465 261.294 132.577 261.73 131.724C263.464 128.26 266.488 125.612 270.153 124.348C271.051 124.024 271.982 123.797 272.929 123.671C273.879 123.542 274.841 123.537 275.792 123.657C277.708 123.892 279.496 124.741 280.887 126.078C281.568 126.748 282.124 127.535 282.529 128.401C282.929 129.266 283.158 130.201 283.203 131.153C283.247 132.103 283.099 133.053 282.77 133.945C282.608 134.389 282.404 134.816 282.16 135.221C281.919 135.626 281.644 136.009 281.336 136.366C280.113 137.8 278.47 138.809 276.748 139.519C278.454 138.772 280.069 137.73 281.244 136.289C281.538 135.931 281.801 135.549 282.029 135.146C282.26 134.746 282.45 134.323 282.598 133.886C282.901 133.015 283.024 132.092 282.962 131.172C282.902 130.256 282.665 129.361 282.263 128.535C281.86 127.707 281.311 126.957 280.643 126.322C279.29 125.076 277.569 124.303 275.738 124.12C274.83 124.025 273.913 124.049 273.011 124.191C272.107 124.328 271.22 124.562 270.366 124.889C266.9 126.163 264.071 128.743 262.487 132.074C262.092 132.894 261.766 133.744 261.51 134.617C261.26 135.491 261.077 136.382 260.963 137.284C260.736 139.089 260.777 140.918 261.085 142.711C261.383 144.499 261.948 146.233 262.763 147.853C263.564 149.465 264.628 150.934 265.909 152.2C267.188 153.456 268.675 154.482 270.304 155.231C271.116 155.605 271.958 155.91 272.821 156.146C273.69 156.383 274.574 156.562 275.467 156.683C277.246 156.929 279.051 156.926 280.83 156.673C281.715 156.546 282.591 156.359 283.451 156.113C284.311 155.861 285.154 155.557 285.975 155.202C287.617 154.478 289.164 153.555 290.579 152.453C293.417 150.231 295.753 147.436 297.435 144.25C299.129 141.085 300.156 137.607 300.453 134.031C300.752 130.484 300.246 126.917 298.973 123.593C298.655 122.768 298.291 121.962 297.88 121.179C297.685 120.783 297.456 120.406 297.239 120.02C297.131 119.828 297.007 119.645 296.889 119.457C296.772 119.268 296.659 119.08 296.529 118.9C296.279 118.535 296.033 118.169 295.76 117.82C295.488 117.471 295.218 117.121 294.939 116.772C294.802 116.598 294.654 116.434 294.507 116.27L294.068 115.774L293.609 115.3C293.457 115.141 293.303 114.982 293.14 114.834C290.613 112.385 287.541 110.571 284.175 109.539C280.821 108.492 277.232 108.177 273.663 108.373C270.061 108.601 266.496 109.237 263.037 110.268C261.298 110.774 259.578 111.361 257.89 112.013C257.045 112.344 256.21 112.693 255.383 113.06C254.971 113.244 254.56 113.432 254.16 113.626L253.559 113.919L253.265 114.067L252.994 114.209L251.208 110.83Z" fill="white"/>
<path d="M225.618 153.809C224.651 157.408 223.95 161.073 223.521 164.774C223.104 168.477 222.981 172.208 223.154 175.931C223.264 177.788 223.407 179.646 223.678 181.488C223.79 182.413 223.959 183.327 224.117 184.243L224.176 184.592L224.248 184.941L224.389 185.626C224.489 186.079 224.564 186.538 224.686 186.987L225.02 188.339C225.073 188.566 225.136 188.79 225.195 189.013L225.387 189.683C225.627 190.58 225.933 191.458 226.219 192.341C226.364 192.781 226.537 193.214 226.695 193.648L226.938 194.301C227.016 194.519 227.113 194.73 227.2 194.945L227.735 196.229L228.32 197.491C228.418 197.7 228.513 197.912 228.616 198.121L228.934 198.737C229.151 199.147 229.353 199.564 229.579 199.967L230.278 201.173L230.453 201.474C230.512 201.573 230.577 201.671 230.638 201.769L231.009 202.355C231.489 203.147 232.038 203.892 232.564 204.653C232.84 205.023 233.127 205.386 233.407 205.755C233.55 205.929 233.686 206.123 233.833 206.301L234.283 206.824L234.732 207.348C234.88 207.522 235.029 207.697 235.19 207.871L236.137 208.884C236.291 209.058 236.46 209.213 236.626 209.374L237.125 209.856L237.623 210.337C237.798 210.494 237.972 210.643 238.147 210.795C239.528 212.025 241.002 213.148 242.554 214.154C245.688 216.17 249.074 217.765 252.625 218.898C256.173 220.027 259.883 220.692 263.586 220.66C265.434 220.651 267.275 220.444 269.078 220.044C270.876 219.644 272.616 219.021 274.257 218.189C275.902 217.351 277.43 216.301 278.802 215.067C279.152 214.772 279.475 214.435 279.802 214.109C279.963 213.945 280.134 213.786 280.288 213.615L280.746 213.091L281.204 212.568C281.349 212.393 281.485 212.205 281.627 212.023C281.768 211.842 281.912 211.662 282.041 211.472L282.425 210.899C282.693 210.524 282.906 210.116 283.142 209.72C283.264 209.524 283.362 209.316 283.465 209.111L283.775 208.493C283.873 208.283 283.95 208.069 284.048 207.857C284.145 207.646 284.236 207.437 284.31 207.217L284.54 206.566L284.656 206.24L284.75 205.906L284.942 205.241C285.005 205.02 285.046 204.791 285.098 204.566C285.15 204.341 285.206 204.118 285.241 203.889L285.351 203.205L285.406 202.856L285.439 202.507L285.507 201.809C285.526 201.578 285.528 201.346 285.539 201.111C285.549 200.875 285.566 200.648 285.554 200.413C285.54 199.95 285.554 199.486 285.497 199.027C285.477 198.796 285.462 198.566 285.437 198.329L285.337 197.643L285.289 197.294L285.217 196.955L285.075 196.276C285.021 196.051 284.955 195.83 284.901 195.608C284.846 195.386 284.782 195.159 284.699 194.945L284.471 194.29C284.395 194.072 284.296 193.865 284.207 193.652C284.032 193.221 283.813 192.817 283.605 192.404C283.163 191.597 282.64 190.837 282.044 190.135C280.856 188.715 279.363 187.582 277.675 186.819C275.965 186.074 274.122 185.683 272.256 185.671C271.323 185.646 270.39 185.72 269.472 185.889C268.556 186.055 267.664 186.336 266.818 186.725C265.115 187.504 263.672 188.757 262.663 190.334C261.652 191.922 261.107 193.761 261.09 195.643C261.09 195.877 261.101 196.111 261.11 196.341C261.118 196.571 261.15 196.809 261.188 197.039C261.254 197.503 261.361 197.961 261.508 198.406C261.653 198.851 261.839 199.282 262.064 199.693C262.292 200.103 262.562 200.488 262.87 200.842C263.49 201.551 264.268 202.104 265.142 202.456C266.026 202.802 266.97 202.967 267.919 202.943C268.873 202.925 269.819 202.779 270.734 202.51C271.651 202.243 272.544 201.9 273.404 201.484C272.551 201.919 271.663 202.281 270.749 202.568C269.833 202.858 268.882 203.024 267.921 203.063C266.953 203.107 265.987 202.958 265.077 202.624C264.621 202.454 264.188 202.229 263.787 201.954C263.383 201.682 263.013 201.363 262.686 201.002C262.36 200.641 262.072 200.247 261.824 199.828C261.582 199.405 261.38 198.961 261.22 198.502C261.058 198.043 260.937 197.571 260.858 197.091C260.812 196.852 260.79 196.61 260.762 196.369C260.734 196.128 260.725 195.884 260.727 195.641C260.703 193.68 261.231 191.752 262.251 190.076C263.28 188.391 264.775 187.039 266.554 186.18C267.438 185.75 268.373 185.434 269.337 185.24C270.297 185.04 271.274 184.942 272.254 184.947C274.225 184.921 276.181 185.295 278.003 186.046C279.83 186.828 281.456 188.01 282.763 189.505C283.417 190.247 283.994 191.052 284.486 191.91C284.717 192.344 284.967 192.783 285.157 193.229C285.255 193.454 285.367 193.676 285.455 193.906L285.712 194.605C285.804 194.833 285.871 195.07 285.942 195.303C286.014 195.535 286.087 195.774 286.15 196.011L286.325 196.73L286.407 197.091L286.467 197.454L286.589 198.184C286.619 198.428 286.641 198.673 286.668 198.917C286.731 199.406 286.736 199.899 286.76 200.39C286.778 200.636 286.76 200.882 286.76 201.128C286.76 201.374 286.76 201.62 286.741 201.866L286.685 202.603L286.655 202.971L286.606 203.337L286.505 204.069C286.472 204.313 286.412 204.552 286.367 204.795C286.322 205.037 286.278 205.28 286.215 205.519L286.026 206.234L285.932 206.583L285.816 206.933L285.586 207.631C285.511 207.866 285.411 208.091 285.318 208.329C285.226 208.566 285.143 208.789 285.04 209.015L284.722 209.685C284.616 209.908 284.514 210.133 284.39 210.346C284.145 210.777 283.923 211.219 283.646 211.631L283.243 212.255C283.109 212.463 282.953 212.657 282.81 212.857C282.667 213.058 282.518 213.259 282.366 213.454L281.892 214.02L281.417 214.585C281.256 214.77 281.08 214.934 280.912 215.123C280.562 215.472 280.237 215.843 279.863 216.17C278.418 217.528 276.801 218.692 275.053 219.631C273.297 220.579 271.428 221.303 269.491 221.784C267.568 222.253 265.6 222.516 263.621 222.569C259.671 222.685 255.743 222.06 251.985 220.952C248.217 219.836 244.613 218.228 241.265 216.172C239.586 215.131 237.989 213.965 236.488 212.681C236.3 212.522 236.107 212.367 235.922 212.205L235.378 211.702L234.837 211.2C234.662 211.025 234.471 210.866 234.302 210.686L233.269 209.627C233.094 209.453 232.931 209.268 232.767 209.084L232.278 208.531L231.786 207.976C231.626 207.789 231.477 207.594 231.32 207.404C231.012 207.018 230.699 206.638 230.397 206.248C229.82 205.451 229.219 204.678 228.691 203.838L228.282 203.222C228.215 203.119 228.146 203.018 228.081 202.913L227.89 202.597L227.13 201.332C226.88 200.908 226.655 200.472 226.417 200.041L226.067 199.393C225.955 199.175 225.851 198.952 225.74 198.732L225.094 197.409L224.498 196.06C224.402 195.835 224.293 195.613 224.206 195.385L223.935 194.701C223.76 194.243 223.566 193.789 223.41 193.327C223.089 192.402 222.748 191.481 222.474 190.535L222.257 189.837C222.182 189.603 222.112 189.367 222.051 189.139L221.668 187.72C221.533 187.249 221.439 186.767 221.318 186.29L221.143 185.575L221.061 185.226L220.991 184.865C220.804 183.905 220.607 182.945 220.467 181.975C220.144 180.043 219.943 178.095 219.796 176.144C219.532 172.239 219.579 168.319 219.934 164.421C220.302 160.521 220.958 156.653 221.895 152.849L225.618 153.809Z" fill="white"/>
<path d="M16.3431 279.866C15.9532 278.882 15.2507 278.054 14.3435 277.508C13.8961 277.242 13.4112 277.045 12.905 276.923C12.4004 276.8 11.8828 276.738 11.3633 276.738C10.3232 276.746 9.29236 276.934 8.31667 277.293C6.86392 277.827 5.53674 278.654 4.41756 279.722C3.29837 280.79 2.4111 282.076 1.81091 283.501C1.05135 285.398 0.818832 287.464 1.13794 289.482C1.28033 290.488 1.53963 291.474 1.91055 292.421C2.27676 293.37 2.73636 294.28 3.28264 295.138C4.39186 296.859 5.76227 298.397 7.3448 299.698C8.93109 301.008 10.6616 302.133 12.5029 303.052C14.3507 303.977 16.282 304.724 18.271 305.285C22.2533 306.404 26.3862 306.896 30.5205 306.743C34.6525 306.593 38.7449 305.884 42.686 304.635C43.6683 304.319 44.6472 303.99 45.6085 303.611C46.091 303.436 46.5646 303.227 47.0436 303.035C47.5225 302.843 47.9857 302.63 48.4681 302.408C50.3908 301.536 52.2908 300.663 54.1716 299.73C57.9366 297.878 61.6142 295.855 65.2202 293.714C72.4321 289.424 79.3206 284.594 85.9487 279.433C89.2697 276.852 92.5034 274.175 95.6916 271.433C98.8798 268.691 102.007 265.882 105.067 262.995C105.84 262.283 106.593 261.548 107.356 260.822L108.495 259.732L109.623 258.63C110.374 257.892 111.131 257.163 111.876 256.421L114.106 254.187L115.233 253.058C115.613 252.679 115.992 252.299 116.378 251.927C117.144 251.175 117.925 250.438 118.71 249.705C120.282 248.243 121.894 246.824 123.546 245.447C130.148 239.941 137.397 235.151 145.177 231.4C152.969 227.635 161.248 224.969 169.775 223.48C174.032 222.747 178.333 222.298 182.649 222.138C186.958 221.98 191.273 222.092 195.568 222.473C197.712 222.665 199.848 222.919 201.977 223.233C203.04 223.386 204.101 223.561 205.171 223.756C205.695 223.857 206.235 223.957 206.767 224.065C207.298 224.173 207.829 224.281 208.355 224.414C210.469 224.896 212.564 225.461 214.629 226.128C216.693 226.795 218.726 227.559 220.72 228.411C222.715 229.262 224.669 230.219 226.574 231.261C228.479 232.307 230.329 233.452 232.115 234.69C235.703 237.174 238.977 240.082 241.865 243.351C244.78 246.636 247.155 250.363 248.9 254.391C250.624 258.43 251.611 262.822 251.599 267.238C251.598 268.34 251.539 269.441 251.424 270.538C251.302 271.64 251.115 272.734 250.863 273.813C250.347 276.026 249.396 278.115 248.066 279.958C247.387 280.877 246.606 281.717 245.738 282.461C244.867 283.201 243.911 283.836 242.891 284.353C240.848 285.382 238.584 285.897 236.296 285.855C234.024 285.82 231.799 285.209 229.828 284.08C227.858 282.95 226.208 281.339 225.032 279.398C223.883 277.499 223.12 275.393 222.786 273.199C222.616 272.125 222.526 271.039 222.517 269.951C222.489 268.855 222.58 267.759 222.788 266.683C222.894 266.139 223.041 265.604 223.227 265.082C223.411 264.557 223.641 264.049 223.914 263.564C224.457 262.582 225.198 261.722 226.09 261.04C226.986 260.363 228.029 259.905 229.135 259.705C230.234 259.513 231.364 259.592 232.426 259.934C233.478 260.281 234.428 260.88 235.193 261.679C235.943 262.468 236.516 263.406 236.875 264.433C237.054 264.939 237.189 265.459 237.277 265.988C237.369 266.514 237.42 267.046 237.43 267.58C237.448 268.641 237.35 269.7 237.138 270.74C237.297 269.697 237.341 268.64 237.271 267.587C237.237 267.064 237.163 266.544 237.051 266.032C236.943 265.522 236.79 265.022 236.593 264.54C236.209 263.579 235.625 262.711 234.88 261.993C234.146 261.292 233.25 260.78 232.272 260.504C231.294 260.227 230.263 260.194 229.269 260.407C228.29 260.622 227.375 261.065 226.6 261.7C225.832 262.337 225.204 263.126 224.756 264.018C224.526 264.465 224.337 264.933 224.192 265.414C224.038 265.894 223.921 266.385 223.842 266.883C223.76 267.383 223.71 267.888 223.693 268.395C223.669 268.901 223.693 269.412 223.709 269.929C223.753 270.954 223.87 271.975 224.059 272.985C224.427 274.976 225.183 276.877 226.282 278.58C226.831 279.409 227.476 280.171 228.205 280.848C230.396 282.881 233.288 283.991 236.278 283.946C238.244 283.928 240.177 283.434 241.909 282.505C242.766 282.041 243.566 281.478 244.291 280.827C245.012 280.173 245.656 279.44 246.214 278.642C247.326 277.018 248.109 275.192 248.517 273.267C248.722 272.282 248.868 271.287 248.956 270.285C249.04 269.277 249.072 268.265 249.052 267.253C248.94 263.193 248.013 259.196 246.326 255.499C244.662 251.793 242.328 248.388 239.589 245.351C236.818 242.318 233.69 239.631 230.274 237.346C228.566 236.196 226.8 235.134 224.983 234.164C223.162 233.199 221.297 232.316 219.39 231.529C217.483 230.742 215.545 230.042 213.57 229.435C211.594 228.828 209.597 228.301 207.579 227.864C207.076 227.749 206.567 227.657 206.062 227.55C205.557 227.444 205.047 227.363 204.538 227.271C203.522 227.096 202.493 226.939 201.46 226.8C199.396 226.515 197.327 226.288 195.251 226.121C191.107 225.787 186.945 225.705 182.79 225.875C178.643 226.053 174.512 226.506 170.426 227.233C166.341 227.956 162.312 228.959 158.365 230.234C154.42 231.518 150.565 233.066 146.829 234.868C143.089 236.67 139.469 238.71 135.992 240.976C132.508 243.243 129.156 245.706 125.952 248.353C124.347 249.677 122.777 251.045 121.243 252.456C120.477 253.154 119.715 253.875 118.97 254.601C118.593 254.96 118.222 255.327 117.852 255.693L116.731 256.803C113.727 259.813 110.66 262.759 107.529 265.643C101.276 271.417 94.7687 276.932 87.9868 282.087C84.5923 284.663 81.1297 287.148 77.5832 289.524C74.0367 291.899 70.4167 294.148 66.7094 296.276C63.0021 298.403 59.2108 300.372 55.3479 302.182C53.4147 303.088 51.4664 303.955 49.5029 304.782C47.5101 305.639 45.4671 306.373 43.3851 306.983C39.2161 308.208 34.8977 308.854 30.5519 308.902C28.3816 308.922 26.2128 308.78 24.0637 308.476C21.9141 308.175 19.7935 307.696 17.724 307.042C15.6498 306.393 13.6418 305.549 11.7269 304.522C9.80408 303.496 8.0069 302.251 6.37125 300.812C4.72145 299.367 3.30627 297.676 2.17624 295.798C1.33484 294.383 0.718048 292.846 0.347885 291.243C0.229309 290.706 0.14003 290.163 0.0804443 289.616C-0.180908 287.422 0.155457 285.198 1.05405 283.178C1.96741 281.185 3.42036 279.487 5.24905 278.274C6.15268 277.675 7.13579 277.205 8.16982 276.878C9.20151 276.549 10.2827 276.401 11.365 276.442C11.9046 276.464 12.4395 276.552 12.9574 276.705C13.4766 276.853 13.97 277.079 14.4204 277.375C15.3178 277.972 15.9935 278.847 16.3431 279.866Z" fill="white"/>
<path d="M79.9531 288.028L79.7696 288.098L79.6053 288.157L79.2819 288.276C79.0687 288.347 78.8554 288.417 78.6439 288.484C78.2192 288.616 77.7962 288.738 77.3714 288.855C76.5231 289.088 75.6707 289.294 74.8142 289.473C73.1033 289.833 71.3737 290.097 69.6334 290.265C66.1461 290.611 62.6296 290.532 59.1616 290.028C55.6813 289.519 52.2917 288.517 49.0954 287.051C48.3001 286.681 47.5135 286.29 46.7479 285.861C45.9823 285.431 45.229 284.988 44.4983 284.501C43.0163 283.536 41.6277 282.434 40.3505 281.211C37.7942 278.762 35.7349 275.843 34.2853 272.615C32.8324 269.395 32.0453 265.915 31.971 262.384C31.9374 260.621 32.1009 258.859 32.4587 257.131C32.641 256.267 32.8745 255.415 33.1579 254.578C33.4371 253.742 33.7717 252.926 34.1594 252.135C34.543 251.339 34.9774 250.569 35.4599 249.829C36.9145 247.615 38.7777 245.697 40.9501 244.178C41.6687 243.677 42.4151 243.216 43.1856 242.798C43.9547 242.386 44.744 242.014 45.5506 241.681C46.3581 241.36 47.1762 241.058 48.0082 240.808C48.8414 240.554 49.6881 240.346 50.5444 240.185C52.2688 239.857 54.0299 239.763 55.7794 239.908C57.5386 240.059 59.2601 240.503 60.8728 241.22C62.4793 241.944 63.9487 242.939 65.2164 244.161C66.474 245.376 67.5291 246.784 68.3417 248.332C69.1533 249.872 69.7211 251.529 70.0249 253.243C70.3366 254.957 70.3425 256.712 70.0424 258.428C69.7464 260.155 69.057 261.792 68.0271 263.211C66.9816 264.619 65.5912 265.735 63.9894 266.452C62.4062 267.147 60.7047 267.533 58.9764 267.59C57.2721 267.662 55.5364 267.54 53.8916 267.007C53.0665 266.746 52.2869 266.359 51.5809 265.859C50.8754 265.356 50.277 264.719 49.8206 263.983C49.3641 263.248 49.0588 262.429 48.9223 261.574C48.7834 260.729 48.7834 259.867 48.9223 259.021C49.0566 258.179 49.3183 257.361 49.6984 256.597C50.0729 255.831 50.5848 255.14 51.2086 254.559C51.8305 253.971 52.605 253.57 53.4442 253.4C54.2843 253.256 55.1486 253.378 55.9157 253.749C55.1458 253.396 54.2846 253.293 53.4529 253.454C52.6326 253.637 51.8807 254.048 51.2838 254.639C50.6843 255.222 50.1973 255.91 49.847 256.669C49.4934 257.423 49.2576 258.227 49.1478 259.053C48.9188 260.691 49.2037 262.426 50.1074 263.805C50.5555 264.493 51.1353 265.086 51.8134 265.55C52.4949 266.012 53.2445 266.365 54.035 266.597C55.6169 267.074 57.3036 267.157 58.9571 267.053C60.607 266.964 62.2248 266.562 63.7237 265.868C65.2014 265.169 66.4745 264.103 67.4205 262.772C68.3472 261.432 68.9536 259.898 69.1929 258.288C69.4399 256.674 69.3985 255.029 69.0706 253.43C68.7514 251.828 68.1854 250.286 67.3926 248.857C66.6066 247.434 65.5975 246.145 64.4036 245.041C63.2167 243.941 61.8483 243.056 60.3589 242.423C58.8714 241.799 57.2899 241.428 55.6798 241.325C54.0615 241.226 52.4372 241.348 50.852 241.688C47.6761 242.386 44.5805 243.676 41.9831 245.59C40.6843 246.543 39.5099 247.654 38.4873 248.897C37.9827 249.52 37.5158 250.172 37.0889 250.85C36.666 251.53 36.2871 252.237 35.9545 252.965C34.6332 255.902 34.0224 259.109 34.1716 262.325C34.3088 265.545 35.0959 268.705 36.4859 271.615C37.8663 274.52 39.7944 277.132 42.1648 279.309C43.3464 280.393 44.6275 281.363 45.9911 282.208C46.6745 282.639 47.3789 283.04 48.0886 283.417C48.7982 283.794 49.5323 284.141 50.2717 284.464C53.242 285.749 56.3809 286.605 59.5934 287.004C62.8162 287.397 66.075 287.397 69.2978 287.004C70.9105 286.814 72.5113 286.534 74.0923 286.164C74.8824 285.982 75.6643 285.775 76.438 285.545C76.8249 285.428 77.2071 285.307 77.5847 285.182C77.7735 285.119 77.9605 285.052 78.144 284.986L78.4167 284.887L78.6596 284.791L79.9531 288.028Z" fill="white"/>
<path d="M113.903 259.735L113.763 260.004L113.616 260.295L113.328 260.894C113.139 261.297 112.954 261.705 112.774 262.116C112.412 262.938 112.075 263.773 111.751 264.615C111.106 266.297 110.54 268.013 110.059 269.747C109.074 273.194 108.501 276.745 108.352 280.327C108.233 283.876 108.647 287.43 109.795 290.731C110.086 291.554 110.419 292.36 110.792 293.149C111.17 293.933 111.593 294.696 112.057 295.433C112.524 296.171 113.034 296.88 113.585 297.557C113.852 297.906 114.15 298.225 114.436 298.555C114.58 298.73 114.739 298.875 114.887 299.033C115.036 299.192 115.186 299.356 115.349 299.505C117.861 301.996 120.881 303.918 124.204 305.14C127.545 306.343 131.114 306.785 134.649 306.435C138.214 306.086 141.67 305.017 144.808 303.293C147.965 301.58 150.724 299.219 152.901 296.365C155.053 293.517 156.523 290.145 156.97 286.606C157.087 285.721 157.138 284.829 157.124 283.937C157.116 283.044 157.044 282.152 156.907 281.269C156.853 280.824 156.75 280.396 156.669 279.946C156.559 279.513 156.468 279.074 156.337 278.646C156.089 277.791 155.771 276.959 155.386 276.156C154.615 274.546 153.572 273.081 152.301 271.826C151.017 270.564 149.536 269.518 147.916 268.73C144.635 267.148 140.961 266.561 137.35 267.042C135.547 267.281 133.796 267.811 132.165 268.613C128.854 270.219 126.304 273.055 125.058 276.513C124.422 278.215 124.113 280.056 124.328 281.862C124.525 283.682 125.311 285.387 126.565 286.721C127.196 287.38 127.941 287.92 128.764 288.316C129.589 288.714 130.485 288.947 131.4 289.002C132.318 289.059 133.239 288.931 134.107 288.627C134.979 288.32 135.789 287.861 136.5 287.271C137.935 286.094 138.975 284.492 139.72 282.796C139.021 284.508 138.005 286.138 136.574 287.363C135.863 287.98 135.048 288.466 134.167 288.8C133.279 289.131 132.333 289.282 131.386 289.245C130.435 289.207 129.501 288.984 128.636 288.59C127.769 288.196 126.979 287.649 126.306 286.976C124.962 285.603 124.101 283.83 123.854 281.925C123.587 280.035 123.873 278.098 124.497 276.313C125.732 272.657 128.347 269.628 131.786 267.869C133.484 266.992 135.314 266.396 137.205 266.105C141.016 265.515 144.917 266.055 148.424 267.658C150.181 268.465 151.796 269.551 153.205 270.873C154.617 272.21 155.788 273.779 156.666 275.513C157.105 276.379 157.473 277.28 157.764 278.206C157.917 278.667 158.024 279.133 158.152 279.602C158.249 280.074 158.368 280.541 158.438 281.018C158.606 281.969 158.706 282.932 158.735 283.897C158.771 284.865 158.736 285.834 158.631 286.796C158.585 287.278 158.506 287.756 158.43 288.234C158.353 288.712 158.255 289.187 158.124 289.655C157.993 290.122 157.867 290.588 157.727 291.051C157.587 291.513 157.417 291.969 157.232 292.417C156.512 294.217 155.573 295.922 154.436 297.492C152.151 300.628 149.226 303.245 145.855 305.171C142.487 307.117 138.758 308.359 134.894 308.822C130.007 309.416 125.051 308.623 120.594 306.536C120.154 306.318 119.708 306.112 119.281 305.871C119.066 305.752 118.848 305.641 118.638 305.522L118.005 305.145C117.794 305.023 117.591 304.887 117.385 304.752C117.179 304.618 116.974 304.487 116.771 304.347L116.174 303.922L115.876 303.707L115.586 303.484L115.008 303.033C114.815 302.881 114.632 302.719 114.443 302.562C114.064 302.253 113.707 301.915 113.345 301.583C113.171 301.421 112.996 301.234 112.821 301.068C112.646 300.902 112.471 300.719 112.297 300.545C111.965 300.18 111.624 299.824 111.313 299.442C110.672 298.689 110.078 297.899 109.533 297.075C108.987 296.251 108.488 295.396 108.039 294.515C107.596 293.632 107.2 292.726 106.852 291.801C105.471 288.096 104.929 284.147 104.982 280.273C105.056 276.413 105.588 272.575 106.565 268.84C107.04 266.978 107.6 265.146 108.247 263.342C108.57 262.44 108.911 261.545 109.28 260.657C109.463 260.212 109.652 259.768 109.85 259.325L110.152 258.66L110.309 258.327L110.484 257.978L113.903 259.735Z" fill="white"/>
<path d="M153.09 228.021C156.897 227.087 160.767 226.434 164.67 226.068C168.574 225.713 172.5 225.666 176.411 225.929C178.363 226.084 180.315 226.278 182.25 226.599C183.221 226.739 184.182 226.936 185.145 227.123L185.505 227.192L185.855 227.276L186.573 227.44C187.05 227.555 187.531 227.648 188.003 227.789L189.426 228.17C189.663 228.231 189.898 228.302 190.125 228.376L190.824 228.592C191.766 228.866 192.689 229.206 193.621 229.529C194.082 229.693 194.537 229.878 194.995 230.053L195.68 230.323C195.909 230.412 196.132 230.519 196.358 230.615L197.707 231.21L199.034 231.857C199.254 231.965 199.476 232.07 199.695 232.184L200.343 232.533C200.775 232.772 201.217 232.997 201.637 233.245L202.904 234.004L203.22 234.194C203.325 234.259 203.426 234.328 203.53 234.397L204.147 234.803C204.979 235.327 205.763 235.931 206.562 236.506C206.95 236.81 207.333 237.123 207.718 237.43C207.908 237.585 208.106 237.733 208.291 237.896L208.847 238.384L209.401 238.875C209.586 239.037 209.771 239.199 209.946 239.374L211.005 240.407C211.18 240.581 211.355 240.756 211.519 240.931L212.023 241.473L212.526 242.014C212.69 242.199 212.844 242.391 213.005 242.58C214.29 244.079 215.458 245.673 216.501 247.349C218.562 250.692 220.172 254.291 221.288 258.054C222.398 261.805 223.024 265.733 222.909 269.67C222.856 271.646 222.593 273.611 222.124 275.531C221.652 277.458 220.938 279.319 220 281.068C219.06 282.813 217.895 284.427 216.536 285.871C216.211 286.243 215.837 286.569 215.487 286.918C215.312 287.093 215.138 287.267 214.947 287.424L214.381 287.897L213.814 288.372C213.62 288.524 213.416 288.667 213.218 288.813C213.021 288.96 212.822 289.112 212.615 289.248L211.988 289.648C211.577 289.927 211.133 290.148 210.703 290.391C210.488 290.517 210.263 290.618 210.039 290.723L209.368 291.04C209.142 291.14 208.91 291.225 208.681 291.319C208.452 291.414 208.225 291.51 207.982 291.585L207.282 291.817L206.933 291.932L206.574 292.026L205.858 292.215C205.62 292.276 205.375 292.314 205.134 292.367C204.893 292.419 204.65 292.469 204.407 292.503L203.673 292.604L203.306 292.654L202.937 292.682L202.201 292.74C201.955 292.754 201.707 292.752 201.462 292.757C201.217 292.763 200.969 292.777 200.722 292.757C200.23 292.733 199.737 292.73 199.247 292.665C199.001 292.639 198.756 292.618 198.511 292.586L197.782 292.466L197.417 292.405L197.057 292.323L196.335 292.148C196.097 292.084 195.863 292.009 195.626 291.939C195.388 291.869 195.152 291.803 194.926 291.71L194.227 291.452C193.996 291.365 193.774 291.253 193.549 291.155C193.093 290.965 192.665 290.717 192.228 290.485C191.369 289.994 190.562 289.418 189.819 288.764C188.322 287.461 187.137 285.837 186.355 284.014C185.602 282.194 185.228 280.241 185.255 278.272C185.255 277.3 185.356 276.33 185.556 275.379C185.751 274.417 186.068 273.483 186.498 272.6C187.358 270.824 188.713 269.332 190.399 268.304C192.078 267.286 194.009 266.759 195.973 266.782C196.216 266.782 196.459 266.803 196.702 266.817C196.945 266.831 197.186 266.869 197.426 266.915C197.907 266.993 198.38 267.113 198.84 267.274C199.3 267.435 199.744 267.637 200.167 267.88C200.587 268.126 200.981 268.414 201.343 268.74C201.704 269.067 202.025 269.436 202.297 269.84C202.572 270.239 202.797 270.671 202.967 271.126C203.302 272.034 203.452 273 203.407 273.967C203.369 274.926 203.202 275.876 202.911 276.791C202.624 277.702 202.262 278.589 201.827 279.44C202.243 278.581 202.587 277.689 202.853 276.773C203.123 275.86 203.269 274.915 203.287 273.963C203.311 273.016 203.145 272.074 202.799 271.192C202.626 270.755 202.399 270.34 202.124 269.958C201.854 269.573 201.537 269.221 201.182 268.911C200.828 268.604 200.443 268.335 200.034 268.107C199.621 267.883 199.189 267.697 198.742 267.552C198.296 267.406 197.838 267.299 197.373 267.232C197.143 267.194 196.908 267.178 196.674 267.154C196.44 267.129 196.206 267.129 195.975 267.135C194.091 267.152 192.249 267.696 190.658 268.705C189.079 269.712 187.824 271.153 187.043 272.854C186.654 273.698 186.373 274.588 186.208 275.503C186.037 276.419 185.964 277.351 185.987 278.283C186.001 280.145 186.392 281.986 187.138 283.693C187.902 285.378 189.037 286.869 190.459 288.056C191.161 288.651 191.923 289.173 192.731 289.614C193.143 289.822 193.547 290.047 193.979 290.215C194.192 290.302 194.4 290.403 194.619 290.48L195.274 290.707C195.491 290.791 195.715 290.846 195.938 290.909C196.162 290.972 196.382 291.035 196.608 291.084L197.288 291.225L197.627 291.295L197.976 291.346L198.663 291.445C198.894 291.468 199.125 291.483 199.363 291.504C199.824 291.555 200.287 291.548 200.75 291.562C200.981 291.572 201.214 291.55 201.45 291.545C201.686 291.539 201.913 291.532 202.149 291.513L202.848 291.445L203.198 291.412L203.547 291.358L204.232 291.25C204.461 291.213 204.685 291.152 204.912 291.106C205.139 291.061 205.365 291.012 205.587 290.949L206.253 290.759L206.587 290.665L206.914 290.55L207.567 290.319C207.786 290.246 207.994 290.145 208.207 290.058C208.42 289.97 208.634 289.883 208.843 289.784L209.462 289.475C209.668 289.374 209.876 289.274 210.074 289.154C210.469 288.918 210.878 288.705 211.254 288.436L211.829 288.054C212.018 287.923 212.196 287.777 212.379 287.639C212.563 287.501 212.746 287.363 212.925 287.216L213.449 286.759L213.973 286.302C214.148 286.148 214.304 285.979 214.47 285.819C214.797 285.49 215.132 285.175 215.428 284.819C216.664 283.449 217.715 281.923 218.555 280.281C219.389 278.642 220.013 276.905 220.413 275.11C220.813 273.309 221.02 271.471 221.03 269.627C221.061 265.929 220.395 262.227 219.266 258.684C218.131 255.138 216.533 251.757 214.514 248.627C213.506 247.077 212.381 245.606 211.149 244.227C210.997 244.053 210.848 243.878 210.691 243.704L210.208 243.206L209.726 242.709C209.565 242.543 209.408 242.374 209.235 242.22L208.223 241.273C208.048 241.112 207.873 240.965 207.698 240.815L207.174 240.367L206.65 239.92C206.475 239.772 206.284 239.636 206.103 239.494C205.734 239.213 205.372 238.927 205 238.651C204.238 238.128 203.491 237.578 202.698 237.1L202.11 236.728C202.012 236.667 201.916 236.602 201.817 236.554L201.514 236.379L200.308 235.681C199.903 235.454 199.485 235.252 199.074 235.037L198.457 234.718C198.249 234.616 198.036 234.52 197.826 234.423L196.562 233.838L195.278 233.304C195.061 233.217 194.851 233.121 194.633 233.042L193.979 232.801C193.54 232.643 193.105 232.47 192.668 232.325C191.784 232.039 190.906 231.735 190.006 231.494L189.335 231.302C189.113 231.238 188.889 231.175 188.662 231.128L187.305 230.794C186.856 230.674 186.397 230.597 185.942 230.498L185.259 230.355L184.909 230.283L184.559 230.224C183.642 230.068 182.726 229.897 181.801 229.786C179.957 229.517 178.096 229.374 176.234 229.262C172.506 229.09 168.77 229.212 165.061 229.627C161.354 230.057 157.684 230.757 154.079 231.721L153.09 228.021Z" fill="white"/>
</svg>
