<svg width="303" height="309" viewBox="0 0 303 309" fill="none" xmlns="http://www.w3.org/2000/svg">
<g clip-path="url(#clip0)">
<path d="M29.1743 292.684C30.1875 293.03 31.0601 293.697 31.6598 294.583C31.9565 295.03 32.1839 295.518 32.3345 296.033C32.4876 296.547 32.578 297.078 32.6037 297.614C32.6479 298.689 32.5054 299.763 32.1824 300.789C31.8626 301.817 31.3996 302.796 30.8068 303.696C29.6116 305.522 27.9309 306.98 25.9529 307.906C24.9593 308.367 23.9054 308.686 22.8223 308.853C21.7382 309.017 20.6379 309.045 19.5468 308.937C17.3537 308.723 15.2389 308.01 13.3644 306.853C11.5047 305.689 9.8699 304.201 8.53834 302.459C7.21451 300.734 6.11504 298.849 5.26624 296.848C4.4192 294.865 3.75686 292.809 3.28761 290.705C2.33849 286.499 2.0763 282.171 2.30528 277.885C2.55816 273.594 3.29339 269.346 4.49715 265.22C4.78906 264.187 5.12467 263.164 5.47076 262.152C5.81684 261.14 6.16993 260.147 6.54748 259.155L7.10856 257.663C7.28335 257.166 7.50009 256.677 7.69585 256.183L8.29015 254.705C8.48592 254.21 8.70789 253.728 8.91415 253.237L9.54689 251.775L9.86503 251.044L10.2006 250.321L11.5465 247.433C12.4991 245.534 13.4238 243.621 14.4568 241.765C16.4424 238.009 18.6518 234.381 20.9031 230.784C21.473 229.889 22.0707 229.012 22.6511 228.128C23.2314 227.243 23.8222 226.358 24.4199 225.482C25.6522 223.756 26.867 222.019 28.115 220.302C33.1316 213.458 38.6148 206.974 44.3514 200.74L46.4996 198.4C46.8492 198.004 47.2303 197.632 47.5973 197.252L48.7073 196.116L53.14 191.578C56.0745 188.65 58.8523 185.57 61.4618 182.35C66.6794 175.929 71.1907 168.943 74.6848 161.475C78.2121 154.016 80.6902 146.106 82.0488 137.969C83.3996 129.818 83.7004 121.528 82.9437 113.301L82.8022 111.757C82.7567 111.242 82.6851 110.729 82.6274 110.216L82.4526 108.675L82.2324 107.139C81.9457 105.088 81.5646 103.083 81.1207 101.076C81.0158 100.573 80.876 100.08 80.7554 99.5804C80.6347 99.0813 80.5107 98.5839 80.3726 98.09L79.9426 96.6136L79.7276 95.8754C79.6559 95.6293 79.5685 95.3885 79.4899 95.1441L79.0057 93.6834L78.8851 93.3187L78.7505 92.9592L78.4813 92.2384C78.3065 91.7602 78.1317 91.2768 77.936 90.8004L77.3434 89.3833C75.7475 85.609 73.7716 82.0064 71.4459 78.6311C71.168 78.2018 70.8534 77.7987 70.5527 77.3851L70.1 76.7673C69.948 76.5613 69.7994 76.3537 69.6351 76.1582L68.6772 74.9628L68.4378 74.6643C68.3556 74.5666 68.263 74.4724 68.1861 74.3764L67.6809 73.8004L67.1758 73.2245L66.9241 72.9383L66.6584 72.6626L65.5992 71.5596C65.4244 71.3712 65.2373 71.2106 65.0538 71.0256L64.4997 70.502L63.9456 69.9785C63.7604 69.804 63.5628 69.6451 63.3723 69.4759C60.3204 66.7883 56.905 64.5143 53.1872 62.9087C51.3377 62.0949 49.4112 61.4681 47.4365 61.0379L46.6972 60.8791L46.3266 60.8005L45.9525 60.7464L44.4581 60.523L42.9531 60.4009L42.5756 60.3695H42.198L41.4429 60.359L40.6878 60.3468L39.9327 60.3869L39.1776 60.4271L38.8001 60.4462C38.6742 60.455 38.5501 60.4759 38.4243 60.4899L36.921 60.6749C36.6728 60.708 36.4334 60.7586 36.1887 60.8005C35.944 60.8424 35.708 60.9052 35.4668 60.9559C34.512 61.1814 33.5799 61.4939 32.6823 61.8895C31.7941 62.2872 30.9495 62.7756 30.1619 63.3468C29.3764 63.9148 28.6607 64.5732 28.0294 65.3083C27.3946 66.0414 26.8517 66.849 26.4126 67.7132C25.5237 69.4531 25.0686 71.3814 25.0859 73.3345C25.1038 75.2979 25.6153 77.2253 26.5734 78.94C26.8141 79.3674 27.0803 79.78 27.3704 80.1756C27.666 80.5688 27.9847 80.9441 28.3248 81.2995C29.0103 82.0158 29.7803 82.6464 30.6181 83.1774C32.3317 84.2482 34.2372 84.9766 36.2289 85.3222C37.2361 85.5035 38.2546 85.6149 39.2773 85.6555C39.8016 85.6887 40.2963 85.6555 40.8049 85.6555C40.9312 85.6546 41.0573 85.6459 41.1825 85.6294L41.5583 85.5909C41.8094 85.5722 42.0593 85.5384 42.3064 85.4897C42.5528 85.4409 42.801 85.3972 43.0458 85.3449L43.7676 85.1337C43.8271 85.1163 43.8883 85.1023 43.9424 85.0796L44.1172 85.0098L44.4668 84.8719C44.5822 84.8213 44.7028 84.7847 44.8164 84.7253L45.1468 84.5508C46.0309 84.0951 46.8102 83.4603 47.4348 82.687C48.0564 81.9088 48.4852 80.9952 48.6863 80.0203C48.8932 79.0316 48.8527 78.0072 48.5682 77.038C48.2837 76.0687 47.7641 75.1844 47.0555 74.4636C46.335 73.7284 45.4679 73.1523 44.5105 72.7725C43.5387 72.3949 42.5136 72.1717 41.4726 72.1111C41.2122 72.0989 40.9483 72.0779 40.6878 72.071L39.9013 72.0936C39.7702 72.0936 39.6391 72.0936 39.508 72.1093L39.1164 72.1513L38.3316 72.2368L39.1112 72.1128L39.5027 72.05C39.6321 72.0291 39.7649 72.0273 39.896 72.0151L40.6861 71.9523C40.95 71.9523 41.2104 71.9523 41.4796 71.9523C41.6125 71.9523 41.7453 71.9523 41.8782 71.9523L42.2749 71.9924L42.6717 72.0308L42.8692 72.0518L43.065 72.0902C43.3254 72.1443 43.5894 72.1914 43.8498 72.249L44.6171 72.4846C45.6394 72.8397 46.576 73.4044 47.3666 74.1425C48.1739 74.8966 48.7806 75.8393 49.1321 76.8858C49.4836 77.9323 49.5689 79.0497 49.3802 80.1372C49.1961 81.2376 48.7547 82.2791 48.092 83.1774C47.4249 84.0719 46.5784 84.8178 45.6065 85.3676L45.2446 85.5752C45.124 85.6451 44.9929 85.6922 44.8688 85.7498L44.4895 85.9243L44.299 86.008C44.2343 86.0342 44.1679 86.0534 44.1033 86.0761L43.3167 86.3379C43.051 86.406 42.7818 86.4636 42.5144 86.5264C42.2474 86.5912 41.9765 86.639 41.7034 86.6695L41.2961 86.7271C41.1607 86.7488 41.0241 86.7628 40.8871 86.7689C40.3435 86.7986 39.7929 86.844 39.2563 86.83C38.1728 86.8289 37.0908 86.7484 36.0191 86.5892C33.8378 86.2819 31.737 85.5546 29.8332 84.4479C29.3548 84.1637 28.8927 83.8532 28.4489 83.5177C28.0075 83.1762 27.5867 82.8091 27.1886 82.4182C26.3845 81.6336 25.6853 80.7484 25.1086 79.7847C23.9446 77.8416 23.2893 75.6371 23.2034 73.3746C23.081 69.9441 24.213 66.5863 26.3881 63.9279C27.1045 63.0464 27.9223 62.2521 28.8247 61.5614C29.7237 60.8708 30.6934 60.277 31.7175 59.7901C32.737 59.3117 33.7984 58.9279 34.8882 58.6435C35.1609 58.5789 35.4318 58.5038 35.7045 58.448C35.9772 58.3922 36.2534 58.3293 36.526 58.2857L38.1533 58.0466C38.2897 58.0292 38.4243 58.0047 38.5606 57.9925L38.9714 57.9594L39.7929 57.8965L40.6126 57.8354H41.4377H42.2609H42.6734L43.0842 57.8599L44.729 57.9559L46.3651 58.1618L46.7723 58.2142L47.1778 58.2909L47.9854 58.4463C50.1411 58.8703 52.2491 59.5081 54.2779 60.3503C58.3105 62.0253 62.0501 64.3311 65.3562 67.1809C65.5624 67.3555 65.7775 67.53 65.9785 67.7045L66.5762 68.256L67.1758 68.8075C67.375 68.9925 67.5796 69.1722 67.7666 69.3677L68.9132 70.523L69.2016 70.8109L69.476 71.1111L70.0214 71.7132L70.5685 72.3153C70.6576 72.4165 70.7433 72.5142 70.8394 72.6172L71.0981 72.9296L72.1364 74.1792C72.3112 74.3851 72.4737 74.6015 72.638 74.8179L73.1292 75.4636C73.4525 75.8964 73.7934 76.3188 74.094 76.7673C76.5951 80.293 78.7288 84.0648 80.4617 88.0238C82.1997 91.9713 83.5745 96.0684 84.5693 100.265L84.9189 101.835L85.0937 102.624C85.1479 102.888 85.1916 103.148 85.2423 103.416C85.4328 104.476 85.6425 105.537 85.7894 106.591L86.0288 108.174L86.2333 109.764C86.2962 110.287 86.3749 110.823 86.4256 111.355L86.5882 112.95L86.6686 113.748L86.7297 114.547L86.8503 116.148C86.8975 116.68 86.9115 117.216 86.9395 117.75L87.0147 119.353L87.0479 120.959C87.0479 121.493 87.0776 122.029 87.0706 122.565L87.0584 124.17V124.973C87.0584 125.242 87.0409 125.509 87.0321 125.776C86.9059 130.064 86.4971 134.339 85.8086 138.573C84.4121 147.058 81.8445 155.308 78.1789 163.088C74.524 170.856 69.8309 178.097 64.4158 184.728C61.7076 188.034 58.8265 191.195 55.7846 194.198L51.3693 198.667L50.2682 199.782C49.9011 200.156 49.5253 200.519 49.174 200.904L47.0345 203.196C41.3004 209.274 35.8946 215.652 30.84 222.304C25.7863 228.944 21.1982 235.924 17.1084 243.196C16.0596 245 15.1315 246.861 14.1579 248.702L12.784 251.506L12.4345 252.204L12.1093 252.913L11.4626 254.333C11.2494 254.81 11.0221 255.278 10.8229 255.759L10.2129 257.196C10.0118 257.675 9.79861 258.15 9.60809 258.634L9.02952 260.086C8.8355 260.567 8.64498 261.052 8.46319 261.541L7.91084 263.004C7.56126 263.972 7.21168 264.941 6.90754 265.925C5.66679 269.855 4.86601 273.911 4.51988 278.017C4.1619 282.12 4.36657 286.251 5.12817 290.298C5.51548 292.311 6.08711 294.284 6.83587 296.192C7.57808 298.091 8.55391 299.891 9.74091 301.55C10.9166 303.2 12.3802 304.625 14.0618 305.757C15.7489 306.878 17.6684 307.602 19.6761 307.876C21.6866 308.171 23.7396 307.92 25.619 307.148C27.0334 306.54 28.3082 305.649 29.3651 304.53C30.422 303.412 31.2386 302.089 31.7647 300.644C32.1184 299.673 32.3005 298.649 32.3031 297.616C32.3019 297.1 32.2379 296.586 32.1125 296.085C31.9895 295.583 31.7909 295.101 31.5235 294.658C30.9756 293.763 30.1511 293.07 29.1743 292.684Z" fill="white"/>
<path d="M25.2027 230.61L25.0995 230.843L24.9894 231.109C24.916 231.283 24.8443 231.472 24.7744 231.657C24.6328 232.025 24.4983 232.402 24.3672 232.781C24.1102 233.538 23.8777 234.309 23.668 235.084C23.244 236.642 22.9067 238.222 22.6577 239.817C22.1552 243.002 22.0595 246.238 22.3728 249.447C22.5275 251.044 22.8045 252.626 23.2013 254.18C23.2887 254.573 23.4076 254.955 23.5194 255.339C23.6313 255.723 23.7379 256.11 23.8777 256.486C24.0176 256.861 24.1382 257.243 24.2763 257.618L24.729 258.732L24.8426 259.011L24.9702 259.283L25.2254 259.828L25.4788 260.372C25.5627 260.547 25.6659 260.721 25.7585 260.896L26.3266 261.957L26.9523 262.988C29.4709 267.096 33.1284 270.386 37.4818 272.461C40.3817 273.85 43.5327 274.639 46.7458 274.782C48.3448 274.852 49.9465 274.742 51.5211 274.456C53.0922 274.168 54.6224 273.69 56.0779 273.033C57.534 272.374 58.8997 271.532 60.1418 270.527C60.7595 270.019 61.3466 269.475 61.9002 268.897C62.4518 268.315 62.9678 267.7 63.4454 267.056C63.9233 266.407 64.3644 265.732 64.7668 265.033C65.1653 264.335 65.5289 263.613 65.8575 262.866C66.507 261.375 67.0098 259.825 67.359 258.238C67.5258 257.448 67.6426 256.649 67.7086 255.845C67.7523 255.444 67.7505 255.042 67.768 254.641C67.768 254.44 67.768 254.239 67.768 254.039V253.737L67.747 253.438C67.6973 252.638 67.5803 251.844 67.3974 251.063C67.3468 250.87 67.3118 250.672 67.2523 250.482L67.0776 249.906C66.9465 249.529 66.8189 249.149 66.6563 248.784C66.0328 247.301 65.155 245.938 64.0624 244.756C62.9618 243.566 61.6777 242.56 60.2589 241.775C58.8349 240.983 57.2965 240.416 55.6986 240.095C54.1017 239.764 52.4588 239.72 50.8464 239.964C49.2391 240.2 47.7076 240.801 46.37 241.721C45.0409 242.659 43.974 243.921 43.2709 245.386C42.9167 246.124 42.643 246.898 42.4546 247.695C42.348 248.091 42.2798 248.498 42.2117 248.904C42.1435 249.311 42.0998 249.721 42.0823 250.135C41.9635 251.784 42.0544 253.465 42.5245 255.042C42.7546 255.829 43.1048 256.576 43.5628 257.257C44.0275 257.934 44.6215 258.513 45.3107 258.96C46.6863 259.861 48.4203 260.149 50.0598 259.922C50.8862 259.812 51.6909 259.577 52.4457 259.224C53.2063 258.876 53.896 258.391 54.4803 257.793C55.072 257.197 55.4839 256.447 55.6689 255.629C55.8307 254.799 55.728 253.94 55.3752 253.171C55.7469 253.937 55.8692 254.8 55.7248 255.639C55.5559 256.478 55.1536 257.253 54.5642 257.875C53.9817 258.499 53.289 259.012 52.5209 259.386C51.7554 259.767 50.9361 260.029 50.0913 260.163C49.2435 260.303 48.3784 260.303 47.5306 260.163C46.675 260.023 45.8546 259.719 45.1149 259.267C44.3742 258.81 43.7315 258.21 43.2237 257.503C42.7208 256.796 42.3316 256.016 42.0701 255.189C41.5457 253.545 41.4059 251.808 41.4863 250.103C41.4863 249.676 41.551 249.248 41.5894 248.821C41.6576 248.397 41.7118 247.969 41.8131 247.55C41.9941 246.702 42.2648 245.875 42.6207 245.084C43.3459 243.482 44.4677 242.09 45.8805 241.041C47.3075 240.009 48.9525 239.317 50.6891 239.02C52.4131 238.716 54.1775 238.721 55.8996 239.035C57.6219 239.339 59.2865 239.908 60.834 240.721C62.3914 241.534 63.8078 242.592 65.029 243.854C66.2609 245.125 67.2612 246.602 67.9847 248.217C68.1718 248.618 68.3238 249.034 68.4794 249.447L68.6822 250.079C68.7521 250.288 68.7993 250.505 68.8569 250.718C69.0795 251.573 69.2286 252.445 69.3027 253.325L69.3341 253.655L69.3481 253.985C69.3481 254.205 69.3708 254.424 69.3743 254.644C69.3743 255.084 69.3743 255.526 69.3411 255.962C69.2911 256.84 69.186 257.715 69.0265 258.58C68.6943 260.292 68.1944 261.968 67.5338 263.583C67.201 264.392 66.8265 265.183 66.4116 265.953C65.9913 266.725 65.5279 267.474 65.0238 268.194C64.0067 269.642 62.8124 270.957 61.4685 272.108C60.1036 273.26 58.5962 274.231 56.9833 274.999C55.3808 275.769 53.6904 276.341 51.9493 276.704C50.2104 277.061 48.437 277.225 46.6619 277.192C43.109 277.117 39.6078 276.326 36.3684 274.868C31.4773 272.672 27.326 269.111 24.4144 264.615L23.7029 263.501L23.0492 262.351C22.9443 262.157 22.8272 261.971 22.7311 261.772L22.4357 261.18L22.1403 260.587L21.9935 260.29L21.8606 259.988L21.3363 258.767C21.172 258.358 21.0234 257.943 20.8661 257.529C20.7088 257.116 20.5759 256.695 20.4413 256.276C20.3068 255.857 20.1669 255.435 20.0603 255.007C19.5834 253.309 19.2375 251.576 19.0255 249.824C18.598 246.331 18.6174 242.798 19.0832 239.309C19.3112 237.571 19.6368 235.846 20.0585 234.144C20.2735 233.292 20.5078 232.444 20.7717 231.603C20.9063 231.18 21.0444 230.76 21.1947 230.339C21.2698 230.128 21.345 229.918 21.4272 229.706L21.5513 229.384L21.6177 229.22L21.6946 229.046L25.2027 230.61Z" fill="white"/>
<path d="M51.7924 198.17L51.4429 198.344L51.109 198.505L50.4431 198.812C50.0002 199.011 49.5563 199.204 49.1111 199.39C48.222 199.765 47.3259 200.115 46.4228 200.437C44.6155 201.1 42.7819 201.682 40.9221 202.182C37.1865 203.208 33.3461 203.807 29.475 203.966C25.5876 204.095 21.6094 203.676 17.8496 202.411C14.0628 201.158 10.6265 199.028 7.82178 196.196C7.64699 196.021 7.47221 195.847 7.30965 195.672L6.80625 195.13L6.32732 194.566C6.16826 194.379 6.00745 194.193 5.86062 193.997C5.55823 193.61 5.25235 193.226 4.97269 192.821C4.69302 192.416 4.4151 192.013 4.14592 191.599C4.00784 191.397 3.88722 191.182 3.75962 190.973C3.63202 190.763 3.50267 190.554 3.38556 190.337C3.15134 189.905 2.90839 189.477 2.69864 189.032C2.26068 188.151 1.87433 187.246 1.54152 186.32C0.209725 182.615 -0.268241 178.659 0.143185 174.744C0.548651 170.864 1.74487 167.108 3.65825 163.708C5.54677 160.305 8.13431 157.34 11.2512 155.006C12.0351 154.428 12.8522 153.897 13.6983 153.414C14.546 152.935 15.4215 152.507 16.3202 152.132C17.2221 151.764 18.1463 151.453 19.0871 151.2C20.029 150.952 20.9868 150.769 21.9537 150.652C23.8866 150.418 25.8429 150.455 27.7655 150.762L28.4822 150.884L29.1918 151.037C29.4296 151.085 29.662 151.147 29.891 151.212C30.12 151.276 30.3594 151.329 30.5902 151.404C31.5252 151.678 32.4361 152.028 33.3134 152.451C35.0718 153.303 36.6686 154.453 38.0328 155.851C39.3853 157.242 40.4986 158.847 41.3277 160.601C42.1557 162.341 42.7178 164.195 42.9952 166.102C43.2767 168 43.2767 169.93 42.9952 171.828C42.8553 172.774 42.642 173.707 42.3572 174.62C42.0701 175.534 41.7064 176.423 41.27 177.276C39.5362 180.74 36.5124 183.388 32.8467 184.652C31.9486 184.976 31.018 185.203 30.071 185.329C29.1214 185.458 28.1588 185.463 27.208 185.343C25.2919 185.108 23.5039 184.258 22.1128 182.922C21.4316 182.251 20.8758 181.465 20.4715 180.599C20.0708 179.734 19.8417 178.799 19.7968 177.847C19.7535 176.897 19.9008 175.947 20.2303 175.055C20.3915 174.611 20.5958 174.183 20.8403 173.779C21.0807 173.374 21.3562 172.991 21.6636 172.634C22.8871 171.2 24.5301 170.191 26.2519 169.481C24.5459 170.228 22.9308 171.269 21.7562 172.711C21.4617 173.068 21.1991 173.451 20.9714 173.854C20.7405 174.254 20.5496 174.676 20.4016 175.114C20.0993 175.985 19.9757 176.908 20.038 177.828C20.0979 178.744 20.3354 179.639 20.7372 180.465C21.1402 181.293 21.689 182.043 22.3575 182.678C23.7098 183.924 25.4313 184.697 27.2622 184.88C28.1703 184.975 29.087 184.951 29.9889 184.809C30.8931 184.672 31.7799 184.438 32.6335 184.111C36.1002 182.837 38.9289 180.257 40.5131 176.926C40.9075 176.106 41.2343 175.256 41.4902 174.383C41.7405 173.509 41.9234 172.618 42.0373 171.716C42.2642 169.911 42.223 168.082 41.9149 166.289C41.6173 164.5 41.0516 162.767 40.2369 161.147C39.4355 159.535 38.3724 158.066 37.0907 156.8C35.8122 155.544 34.3255 154.518 32.6964 153.769C31.884 153.395 31.0421 153.089 30.1794 152.854C29.3101 152.617 28.4261 152.437 27.5331 152.317C25.7538 152.071 23.9488 152.074 22.1705 152.327C21.2848 152.454 20.4088 152.641 19.5486 152.887C18.6893 153.139 17.8464 153.443 17.0246 153.798C15.3826 154.522 13.8363 155.445 12.4206 156.547C9.5826 158.769 7.24653 161.564 5.56523 164.749C3.87149 167.915 2.84421 171.393 2.54657 174.969C2.24754 178.515 2.7536 182.083 4.02706 185.407C4.34457 186.232 4.70932 187.038 5.11951 187.821C5.31527 188.217 5.54426 188.594 5.761 188.98C5.86937 189.172 5.99347 189.355 6.11058 189.543C6.22769 189.732 6.3413 189.92 6.47064 190.1C6.7206 190.465 6.96706 190.831 7.23973 191.18C7.51241 191.529 7.78158 191.878 8.06125 192.227C8.19758 192.402 8.34617 192.566 8.493 192.73L8.93171 193.226L9.39141 193.7C9.54348 193.859 9.6973 194.018 9.85986 194.166C12.3865 196.615 15.4591 198.429 18.8249 199.461C22.1792 200.508 25.7677 200.822 29.3369 200.627C32.9392 200.399 36.5039 199.763 39.9625 198.732C41.7017 198.226 43.4217 197.639 45.1102 196.987C45.955 196.656 46.7905 196.307 47.6167 195.939C48.0292 195.756 48.4399 195.568 48.8402 195.374L49.4415 195.081L49.7351 194.932L50.0061 194.791L51.7924 198.17Z" fill="white"/>
<path d="M77.3824 155.191C78.349 151.592 79.0501 147.927 79.4799 144.226C79.8966 140.523 80.0193 136.792 79.847 133.069C79.7368 131.212 79.5935 129.354 79.3226 127.512C79.2107 126.587 79.0412 125.673 78.8839 124.757L78.8244 124.408L78.7528 124.059L78.6112 123.374C78.5115 122.921 78.4364 122.462 78.314 122.013L77.9802 120.661C77.9277 120.434 77.8648 120.21 77.8054 119.987L77.6131 119.317C77.3737 118.42 77.0678 117.542 76.7811 116.659C76.636 116.219 76.463 115.786 76.3057 115.352L76.0627 114.699C75.9841 114.481 75.8879 114.27 75.8005 114.055L75.2657 112.771L74.6801 111.509C74.5822 111.3 74.4878 111.088 74.3847 110.879L74.0666 110.263C73.8498 109.853 73.6471 109.436 73.4216 109.033L72.7224 107.827L72.5477 107.526C72.4882 107.427 72.4235 107.329 72.3624 107.231L71.9918 106.645C71.5111 105.853 70.9623 105.108 70.4362 104.347C70.16 103.977 69.8733 103.614 69.5937 103.245C69.4503 103.071 69.314 102.877 69.1672 102.699L68.718 102.176L68.2688 101.652C68.1202 101.478 67.9716 101.303 67.8108 101.129L66.8634 100.116C66.7096 99.9418 66.54 99.7865 66.374 99.6259L65.8758 99.1443L65.3777 98.6626C65.2029 98.5055 65.0281 98.3572 64.8533 98.2054C63.472 96.9755 61.9989 95.8524 60.4468 94.8459C57.3128 92.8301 53.9265 91.2352 50.3753 90.1025C46.827 88.9733 43.1179 88.3084 39.4141 88.3398C37.5667 88.3495 35.7256 88.556 33.9221 88.9558C32.1249 89.3556 30.385 89.9789 28.7431 90.811C27.0982 91.6491 25.5703 92.6988 24.1985 93.9331C23.8489 94.2281 23.5255 94.5649 23.1987 94.8912C23.0379 95.0553 22.8666 95.2141 22.7127 95.3851L22.2548 95.9087L21.7968 96.4323C21.6518 96.6068 21.5154 96.7953 21.3738 96.9768C21.2322 97.1583 21.0889 97.338 20.9596 97.5282L20.575 98.1007C20.3076 98.4759 20.0943 98.8842 19.8584 99.2804C19.736 99.4759 19.6381 99.6835 19.535 99.8895L19.2256 100.507C19.1277 100.717 19.0508 100.931 18.953 101.143C18.8551 101.354 18.7642 101.563 18.6908 101.783L18.46 102.434L18.3447 102.76L18.2503 103.094L18.058 103.759C17.9951 103.98 17.9549 104.209 17.9025 104.434C17.85 104.659 17.7941 104.882 17.7591 105.111L17.649 105.795L17.5948 106.144L17.5616 106.493L17.4935 107.191C17.4742 107.422 17.4725 107.654 17.462 107.889C17.4515 108.125 17.434 108.352 17.4463 108.587C17.4602 109.05 17.4463 109.514 17.5039 109.973C17.5232 110.204 17.5389 110.434 17.5634 110.671L17.663 111.357L17.7119 111.706L17.7836 112.045L17.9252 112.724C17.9794 112.949 18.0458 113.17 18.1 113.392C18.1542 113.614 18.2188 113.841 18.301 114.055L18.53 114.71C18.6051 114.928 18.7048 115.135 18.7939 115.348C18.9687 115.779 19.1872 116.183 19.3952 116.596C19.838 117.403 20.3609 118.163 20.9561 118.865C22.144 120.285 23.6378 121.418 25.3259 122.181C27.0354 122.926 28.8789 123.317 30.7444 123.329C31.6776 123.354 32.6109 123.28 33.5289 123.111C34.445 122.945 35.3364 122.664 36.1822 122.275C37.8858 121.496 39.3283 120.243 40.337 118.666C41.3484 117.078 41.8934 115.239 41.9101 113.357C41.9101 113.123 41.8996 112.889 41.8909 112.659C41.8822 112.429 41.8507 112.191 41.8123 111.961C41.7469 111.497 41.6399 111.039 41.4924 110.594C41.3478 110.149 41.1617 109.718 40.9365 109.307C40.7082 108.897 40.4382 108.512 40.1308 108.158C39.5109 107.449 38.7324 106.896 37.8585 106.544C36.9744 106.198 36.0301 106.033 35.081 106.057C34.1278 106.075 33.1814 106.221 32.2668 106.49C31.3494 106.757 30.4561 107.1 29.596 107.516C30.4491 107.081 31.3373 106.719 32.2511 106.432C33.1676 106.142 34.1187 105.976 35.0793 105.937C36.0471 105.893 37.0139 106.042 37.9231 106.376C38.3791 106.546 38.8123 106.771 39.2131 107.046C39.6174 107.318 39.9871 107.637 40.3143 107.998C40.6401 108.359 40.9288 108.753 41.176 109.172C41.4184 109.595 41.6209 110.039 41.7808 110.498C41.9422 110.957 42.0633 111.429 42.1426 111.909C42.188 112.148 42.2108 112.39 42.2387 112.631C42.2667 112.872 42.2754 113.116 42.2737 113.359C42.2977 115.32 41.7695 117.248 40.7495 118.924C39.72 120.609 38.2259 121.961 36.4461 122.82C35.5625 123.25 34.6274 123.566 33.6635 123.76C32.704 123.96 31.7262 124.058 30.7462 124.053C28.7751 124.079 26.8193 123.705 24.9973 122.954C23.1708 122.172 21.544 120.99 20.2377 119.495C19.5836 118.753 19.0062 117.948 18.5142 117.09C18.2835 116.656 18.0336 116.217 17.843 115.771C17.7452 115.546 17.6333 115.324 17.5459 115.094L17.2889 114.395C17.1963 114.167 17.1299 113.93 17.0582 113.697C16.9866 113.465 16.9131 113.226 16.8502 112.989L16.6754 112.27L16.5933 111.909L16.5339 111.546L16.4115 110.816C16.3818 110.572 16.3591 110.327 16.3328 110.083C16.2699 109.594 16.2647 109.101 16.2402 108.61C16.2227 108.364 16.2402 108.118 16.2402 107.872C16.2402 107.626 16.2402 107.38 16.2594 107.134L16.3154 106.397L16.3451 106.029L16.394 105.663L16.4954 104.931C16.5286 104.687 16.588 104.448 16.6335 104.205C16.6789 103.963 16.7226 103.72 16.7855 103.481L16.9743 102.766L17.0687 102.417L17.1841 102.067L17.4148 101.369C17.4899 101.134 17.5896 100.909 17.6822 100.671C17.7749 100.434 17.857 100.211 17.9601 99.9855L18.2783 99.3153C18.3849 99.0919 18.4863 98.8668 18.6104 98.6539C18.8551 98.2228 19.0771 97.7813 19.355 97.3694L19.757 96.7446C19.8916 96.537 20.0472 96.3432 20.1905 96.1426C20.3338 95.9419 20.4824 95.7411 20.6345 95.5457L21.1081 94.9802L21.5836 94.4148C21.7444 94.2298 21.9209 94.0658 22.0887 93.8773C22.4383 93.5283 22.7634 93.1565 23.1375 92.8302C24.5825 91.4716 26.1997 90.3081 27.9477 89.3695C29.7037 88.421 31.5724 87.6974 33.5096 87.2159C35.4327 86.7469 37.4003 86.4836 39.3791 86.4306C43.3294 86.3154 47.257 86.9402 51.015 88.0484C54.7832 89.1644 58.3876 90.7716 61.735 92.8284C63.4142 93.8686 65.0112 95.0354 66.5121 96.3188C66.7009 96.4776 66.8931 96.6329 67.0784 96.7953L67.622 97.2979L68.1639 97.8005C68.3387 97.975 68.5292 98.1338 68.6987 98.3136L69.7318 99.3729C69.9066 99.5474 70.0691 99.7324 70.2334 99.9157L70.7228 100.469L71.214 101.024C71.3748 101.211 71.5234 101.406 71.6807 101.596C71.9883 101.982 72.3012 102.362 72.6036 102.752C73.1804 103.549 73.7817 104.322 74.3095 105.162L74.7186 105.778C74.785 105.881 74.8549 105.982 74.9196 106.087L75.1101 106.403L75.8704 107.668C76.1204 108.092 76.3459 108.528 76.5836 108.959L76.9332 109.607C77.045 109.825 77.1499 110.048 77.26 110.268L77.9068 111.591L78.5028 112.94C78.5989 113.165 78.7073 113.387 78.7947 113.615L79.0657 114.299C79.2404 114.757 79.4345 115.211 79.59 115.673C79.9116 116.598 80.2525 117.519 80.5269 118.465L80.7437 119.163C80.8188 119.397 80.8887 119.633 80.9499 119.861L81.3327 121.28C81.4673 121.751 81.5617 122.233 81.6823 122.71L81.8571 123.425L81.9392 123.774L82.0091 124.135C82.1962 125.095 82.3937 126.055 82.5335 127.025C82.8569 128.957 83.0579 130.905 83.2047 132.856C83.4681 136.761 83.422 140.681 83.0666 144.579C82.6981 148.479 82.0426 152.347 81.1055 156.151L77.3824 155.191Z" fill="white"/>
<path d="M286.657 29.134C287.047 30.1174 287.75 30.9458 288.657 31.4917C289.104 31.7577 289.589 31.9548 290.096 32.0764C290.6 32.1998 291.118 32.2619 291.637 32.2614C292.677 32.2539 293.708 32.0661 294.684 31.7064C296.137 31.1723 297.464 30.3456 298.583 29.2777C299.702 28.2098 300.589 26.9235 301.19 25.4987C301.949 23.602 302.182 21.5357 301.863 19.518C301.72 18.5117 301.461 17.5254 301.09 16.5791C300.724 15.6302 300.264 14.72 299.718 13.8618C298.609 12.1408 297.238 10.6024 295.656 9.30163C294.069 7.99169 292.339 6.86636 290.498 5.94738C288.65 5.02309 286.718 4.27571 284.729 3.71527C280.747 2.59558 276.614 2.10333 272.48 2.2563C268.348 2.40681 264.256 3.116 260.315 4.36449C259.332 4.68037 258.353 5.01021 257.392 5.38891C256.91 5.56343 256.436 5.77285 255.957 5.96483C255.478 6.1568 255.015 6.36971 254.532 6.59135C252.61 7.46395 250.71 8.33654 248.829 9.27022C245.064 11.1219 241.386 13.1445 237.78 15.2859C230.568 19.5756 223.68 24.4063 217.052 29.5668C213.731 32.1479 210.497 34.825 207.309 37.5667C204.121 40.3084 200.994 43.1182 197.933 46.0047C197.16 46.7168 196.407 47.4515 195.645 48.1775L194.505 49.2682L193.378 50.3695C192.626 51.1077 191.87 51.8372 191.125 52.5789L188.895 54.8127L187.767 55.9419C187.388 56.3206 187.009 56.701 186.622 57.0727C185.857 57.8249 185.075 58.5614 184.291 59.2944C182.719 60.7568 181.106 62.1763 179.454 63.5526C172.852 69.0587 165.604 73.8493 157.824 77.5997C150.031 81.3652 141.753 84.0306 133.225 85.5193C128.969 86.253 124.668 86.7013 120.352 86.8614C116.043 87.0196 111.728 86.9077 107.433 86.5263C105.289 86.3344 103.152 86.0813 101.023 85.7672C99.9604 85.6136 98.8994 85.4391 97.8297 85.2436C97.3053 85.1424 96.7652 85.0429 96.2339 84.9347C95.7025 84.8265 95.1711 84.7183 94.645 84.5857C92.5318 84.104 90.436 83.5386 88.3717 82.8719C86.3074 82.2052 84.2746 81.4408 82.2802 80.5892C80.2858 79.7375 78.3317 78.7812 76.4264 77.7393C74.5214 76.6925 72.672 75.5479 70.8855 74.31C67.2974 71.8263 64.0236 68.918 61.1356 65.6486C58.2203 62.3634 55.8456 58.637 54.1003 54.6085C52.3768 50.5702 51.3892 46.1775 51.4015 41.7622C51.4029 40.6599 51.4612 39.5583 51.5763 38.462C51.6983 37.36 51.8857 36.2662 52.1373 35.1863C52.6536 32.9736 53.6041 30.885 54.934 29.0415C55.6133 28.1225 56.3944 27.283 57.2622 26.5389C58.1337 25.7989 59.0894 25.1639 60.1096 24.6471C62.1528 23.6182 64.4165 23.1025 66.7045 23.1445C68.9762 23.1794 71.2017 23.7903 73.172 24.9198C75.1423 26.0494 76.7927 27.6604 77.9681 29.6017C79.1174 31.5006 79.8806 33.6071 80.2142 35.8006C80.3847 36.875 80.4747 37.9606 80.4834 39.0484C80.5113 40.1446 80.4205 41.2405 80.2124 42.3171C80.1062 42.8607 79.9596 43.3957 79.7737 43.9175C79.5898 44.4427 79.3599 44.9508 79.0868 45.4358C78.544 46.4182 77.803 47.2775 76.9106 47.9594C76.0149 48.6373 74.9717 49.0947 73.8657 49.2944C72.7663 49.4867 71.6365 49.4082 70.5744 49.0658C69.5229 48.719 68.5728 48.1197 67.8074 47.3206C67.0575 46.5322 66.4843 45.5934 66.1259 44.5667C65.9465 44.0612 65.8119 43.5408 65.7239 43.0117C65.6318 42.4859 65.5803 41.9538 65.5701 41.4201C65.5525 40.3592 65.6504 39.2994 65.862 38.2596C65.7036 39.3029 65.659 40.3602 65.7292 41.4131C65.7639 41.9362 65.8375 42.4559 65.9494 42.9681C66.0577 43.478 66.2109 43.9773 66.4074 44.4602C66.7914 45.4205 67.3753 46.2884 68.1203 47.0065C68.8549 47.708 69.7502 48.2193 70.7283 48.4959C71.7063 48.7724 72.7373 48.8057 73.7311 48.5929C74.7106 48.3781 75.6252 47.935 76.4002 47.2997C77.1687 46.6627 77.7966 45.8735 78.2443 44.9821C78.474 44.5345 78.663 44.0673 78.8088 43.5859C78.9622 43.1055 79.079 42.6143 79.1584 42.1165C79.2403 41.6164 79.29 41.1115 79.307 40.6051C79.3315 40.099 79.307 39.5877 79.2913 39.0711C79.2471 38.0455 79.1303 37.0244 78.9417 36.0153C78.5731 34.0233 77.8178 32.1226 76.7183 30.4202C76.1696 29.5907 75.5242 28.8291 74.7956 28.1514C72.605 26.1183 69.7125 25.0086 66.722 25.0537C64.756 25.0714 62.8238 25.5661 61.0919 26.4953C60.2345 26.9588 59.4348 27.5217 58.7095 28.1724C57.989 28.8268 57.3441 29.5597 56.7868 30.3574C55.6744 31.9815 54.8917 33.8077 54.4831 35.7325C54.2787 36.7173 54.1322 37.7132 54.0443 38.7151C53.9608 39.7233 53.9287 40.735 53.9482 41.7465C54.0603 45.8071 54.9875 49.804 56.6749 53.5003C58.339 57.2071 60.6724 60.612 63.4114 63.6486C66.1825 66.6814 69.31 69.3692 72.7261 71.6538C74.4343 72.8036 76.2003 73.8655 78.017 74.8353C79.8384 75.8004 81.7034 76.6834 83.6104 77.4705C85.5174 78.2576 87.4558 78.9574 89.4309 79.5648C91.4061 80.1721 93.404 80.6991 95.4211 81.1354C95.9245 81.2506 96.4331 81.3431 96.9383 81.4496C97.4434 81.556 97.9538 81.6363 98.4624 81.7288C99.478 81.9033 100.508 82.0604 101.541 82.2C103.604 82.485 105.674 82.7113 107.749 82.8789C111.894 83.2129 116.055 83.2951 120.21 83.125C124.357 82.9472 128.488 82.4936 132.575 81.7672C136.659 81.0439 140.689 80.041 144.635 78.7654C148.581 77.4816 152.435 75.9336 156.172 74.132C159.912 72.3302 163.532 70.2899 167.009 68.0238C170.493 65.7566 173.845 63.2937 177.049 60.6469C178.653 59.3229 180.223 57.9552 181.758 56.5439C182.523 55.8459 183.285 55.1251 184.03 54.3991C184.408 54.0396 184.778 53.6731 185.149 53.3066L186.269 52.1967C189.273 49.1868 192.341 46.2403 195.472 43.3573C201.724 37.5824 208.232 32.0676 215.014 26.9124C218.408 24.3365 221.871 21.8513 225.417 19.4761C228.964 17.1009 232.584 14.8513 236.291 12.7239C239.998 10.5966 243.79 8.62799 247.653 6.81823C249.586 5.91189 251.534 5.04511 253.498 4.21789C255.49 3.36125 257.533 2.62634 259.615 2.01721C263.784 0.791564 268.103 0.14558 272.449 0.0974954C274.619 0.0778204 276.788 0.22016 278.937 0.523322C281.086 0.824362 283.207 1.30421 285.277 1.95786C287.351 2.60706 289.359 3.45085 291.274 4.47792C293.196 5.50395 294.994 6.74901 296.629 8.1882C298.279 9.63268 299.694 11.3241 300.824 13.2021C301.666 14.6171 302.282 16.1536 302.653 17.7571C302.771 18.294 302.86 18.837 302.92 19.3836C303.181 21.578 302.845 23.8021 301.946 25.8216C301.033 27.8146 299.58 29.5131 297.751 30.7256C296.848 31.3247 295.865 31.7946 294.831 32.1217C293.799 32.451 292.718 32.5986 291.635 32.558C291.096 32.5359 290.561 32.4474 290.043 32.2945C289.524 32.1473 289.031 31.9213 288.58 31.6244C287.683 31.0275 287.007 30.1524 286.657 29.134Z" fill="white"/>
<path d="M223.047 20.9718L223.23 20.902L223.395 20.8427L223.718 20.724C223.931 20.6524 224.145 20.5826 224.356 20.5163C224.781 20.3837 225.204 20.2615 225.629 20.1446C226.477 19.9119 227.329 19.706 228.186 19.5268C229.897 19.167 231.626 18.9025 233.367 18.7345C236.854 18.3885 240.37 18.4682 243.838 18.9718C247.319 19.4808 250.708 20.4833 253.905 21.9491C254.7 22.3191 255.486 22.71 256.252 23.1393C257.018 23.5687 257.771 24.0119 258.502 24.4988C259.984 25.4643 261.372 26.5656 262.649 27.7885C265.206 30.2383 267.265 33.1572 268.715 36.3853C270.168 39.6053 270.955 43.0848 271.029 46.6156C271.063 48.3793 270.899 50.1412 270.541 51.8687C270.359 52.7328 270.125 53.5853 269.842 54.4219C269.563 55.2576 269.228 56.0738 268.841 56.8652C268.457 57.6606 268.023 58.4306 267.54 59.1705C266.085 61.3847 264.222 63.3024 262.05 64.8215C261.331 65.3231 260.585 65.784 259.814 66.2019C259.045 66.6136 258.256 66.9863 257.449 67.3188C256.642 67.64 255.824 67.9419 254.992 68.1914C254.159 68.4458 253.312 68.6538 252.456 68.8145C250.731 69.1433 248.97 69.2367 247.221 69.092C245.461 68.9407 243.74 68.4972 242.127 67.7796C240.521 67.0561 239.051 66.0613 237.784 64.8389C236.526 63.6237 235.471 62.2156 234.658 60.6679C233.847 59.1275 233.279 57.4709 232.975 55.7569C232.663 54.0431 232.657 52.2878 232.958 50.572C233.254 48.8444 233.943 47.2078 234.973 45.7884C236.018 44.3805 237.409 43.2645 239.011 42.5476C240.594 41.853 242.295 41.4668 244.024 41.4097C245.728 41.3382 247.464 41.4603 249.108 41.9926C249.934 42.2536 250.713 42.641 251.419 43.141C252.125 43.6435 252.723 44.281 253.179 45.0166C253.636 45.7521 253.941 46.5709 254.078 47.4254C254.217 48.2708 254.217 49.1332 254.078 49.9786C253.943 50.8212 253.682 51.6386 253.302 52.4027C252.927 53.1685 252.415 53.8594 251.791 54.4411C251.17 55.0286 250.395 55.4301 249.556 55.5999C248.716 55.744 247.851 55.6219 247.084 55.2509C247.854 55.6036 248.715 55.7067 249.547 55.5458C250.367 55.3625 251.119 54.9518 251.716 54.3608C252.316 53.7778 252.803 53.0899 253.153 52.3311C253.507 51.5768 253.742 50.7728 253.852 49.9472C254.081 48.3085 253.796 46.5738 252.893 45.195C252.444 44.5069 251.865 43.9138 251.187 43.4499C250.505 42.9877 249.756 42.6344 248.965 42.4027C247.383 41.9263 245.696 41.8425 244.043 41.9473C242.393 42.036 240.775 42.4381 239.276 43.1322C237.799 43.8307 236.526 44.8968 235.579 46.2282C234.653 47.5675 234.046 49.1014 233.807 50.7116C233.56 52.3256 233.601 53.9706 233.929 55.5702C234.249 57.1718 234.815 58.7143 235.607 60.1426C236.393 61.5659 237.403 62.8544 238.596 63.9593C239.783 65.0584 241.152 65.9441 242.641 66.5771C244.129 67.2009 245.71 67.5719 247.32 67.6749C248.939 67.7738 250.563 67.6517 252.148 67.3119C255.324 66.6138 258.419 65.3241 261.017 63.4096C262.316 62.457 263.49 61.346 264.513 60.1025C265.017 59.4798 265.484 58.8277 265.911 58.1496C266.334 57.4694 266.713 56.7629 267.045 56.0344C268.367 53.0974 268.978 49.8912 268.828 46.675C268.691 43.4545 267.904 40.2947 266.514 37.3853C265.134 34.4801 263.206 31.8676 260.835 29.6908C259.654 28.6069 258.373 27.6364 257.009 26.792C256.326 26.361 255.621 25.9596 254.911 25.5826C254.202 25.2056 253.468 24.8584 252.728 24.5355C249.758 23.2504 246.619 22.3953 243.407 21.9962C240.184 21.6027 236.925 21.6027 233.702 21.9962C232.089 22.1857 230.489 22.4659 228.908 22.8357C228.118 23.0183 227.336 23.2249 226.562 23.4552C226.175 23.5716 225.793 23.6926 225.415 23.8182C225.227 23.881 225.04 23.9474 224.856 24.0137L224.583 24.1131L224.34 24.2091L223.047 20.9718Z" fill="white"/>
<path d="M189.097 49.2648L189.237 48.9961L189.384 48.7046L189.672 48.106C189.861 47.7029 190.046 47.2945 190.226 46.8844C190.588 46.0624 190.925 45.2265 191.249 44.3853C191.894 42.7029 192.46 40.9874 192.941 39.2527C193.926 35.8059 194.499 32.2547 194.648 28.6733C194.767 25.1236 194.353 21.5704 193.205 18.2685C192.914 17.4464 192.581 16.6396 192.208 15.8514C191.83 15.0667 191.407 14.304 190.943 13.5669C190.476 12.8293 189.966 12.12 189.415 11.443C189.148 11.094 188.85 10.7746 188.564 10.4448C188.42 10.2703 188.261 10.1254 188.113 9.96661C187.964 9.8078 187.814 9.64375 187.651 9.49541C185.139 7.0037 182.119 5.08168 178.796 3.86019C175.455 2.65707 171.886 2.21466 168.351 2.56526C164.786 2.91393 161.33 3.9827 158.192 5.70661C155.035 7.4196 152.276 9.78089 150.099 12.635C147.947 15.4832 146.477 18.8549 146.03 22.3941C145.913 23.2786 145.862 24.1705 145.876 25.0625C145.884 25.956 145.956 26.8479 146.093 27.7309C146.147 28.1759 146.25 28.6035 146.331 29.0538C146.441 29.4866 146.532 29.9264 146.663 30.3539C146.911 31.2085 147.229 32.0414 147.614 32.8443C148.385 34.4542 149.428 35.919 150.699 37.1741C151.983 38.4359 153.464 39.4814 155.084 40.2701C158.365 41.8521 162.039 42.4388 165.65 41.9577C167.453 41.7191 169.204 41.1886 170.835 40.387C174.146 38.7805 176.696 35.9452 177.942 32.4866C178.578 30.785 178.887 28.9438 178.672 27.1375C178.475 25.3184 177.689 23.6129 176.435 22.2789C175.804 21.6198 175.059 21.0795 174.236 20.6838C173.411 20.2862 172.515 20.0532 171.6 19.998C170.682 19.9414 169.761 20.0689 168.893 20.3732C168.021 20.68 167.211 21.1392 166.5 21.7292C165.065 22.9055 164.025 24.5075 163.28 26.2039C163.979 24.4918 164.995 22.8618 166.426 21.6367C167.137 21.0197 167.952 20.5334 168.833 20.2004C169.721 19.869 170.667 19.7177 171.614 19.7554C172.565 19.7932 173.499 20.0155 174.364 20.4098C175.231 20.8038 176.021 21.3506 176.694 22.0241C178.038 23.3973 178.899 25.1701 179.146 27.0747C179.413 28.9648 179.127 30.9019 178.503 32.6873C177.268 36.3427 174.653 39.3723 171.214 41.1305C169.516 42.0081 167.686 42.604 165.795 42.8949C161.984 43.4851 158.083 42.9451 154.576 41.3417C152.819 40.5346 151.204 39.4491 149.795 38.127C148.383 36.7904 147.212 35.2205 146.334 33.4866C145.895 32.6206 145.527 31.72 145.236 30.7937C145.083 30.333 144.976 29.867 144.848 29.3976C144.751 28.9264 144.632 28.4587 144.562 27.9822C144.394 27.0307 144.294 26.0684 144.265 25.1027C144.229 24.1351 144.264 23.1663 144.369 22.2039C144.415 21.7222 144.494 21.244 144.57 20.7659C144.647 20.2877 144.745 19.813 144.876 19.3453C145.007 18.8776 145.133 18.4116 145.273 17.9491C145.413 17.4866 145.583 17.0312 145.768 16.5826C146.488 14.7826 147.427 13.0781 148.564 11.5076C150.849 8.37155 153.774 5.75446 157.145 3.82878C160.513 1.88306 164.242 0.640959 168.106 0.177845C172.993 -0.415617 177.949 0.376672 182.406 2.46404C182.846 2.68219 183.292 2.88812 183.719 3.12896C183.934 3.24763 184.152 3.35932 184.362 3.478L184.995 3.85496C185.206 3.97713 185.409 4.11325 185.615 4.24763C185.821 4.38201 186.026 4.51289 186.229 4.65251L186.826 5.07833L187.124 5.293L187.414 5.51638L187.992 5.96664C188.185 6.11847 188.368 6.28078 188.557 6.43784C188.936 6.74674 189.293 7.08531 189.655 7.41689C189.829 7.5792 190.004 7.76593 190.179 7.93173C190.354 8.09752 190.529 8.28076 190.703 8.45528C191.035 8.82003 191.376 9.17605 191.687 9.55825C192.328 10.3105 192.922 11.1008 193.467 11.9247C194.013 12.7493 194.512 13.604 194.961 14.4849C195.404 15.3684 195.8 16.2742 196.148 17.1987C197.529 20.9037 198.071 24.8531 198.018 28.7274C197.944 32.5873 197.412 36.4249 196.435 40.1602C195.96 42.0217 195.4 43.8542 194.753 45.6575C194.43 46.5598 194.089 47.4551 193.72 48.3434C193.537 48.7884 193.348 49.2317 193.15 49.6749L192.848 50.3399L192.691 50.6732L192.516 51.0222L189.097 49.2648Z" fill="white"/>
<path d="M149.911 80.9789C146.104 81.9132 142.233 82.566 138.331 82.9317C134.427 83.2871 130.501 83.3338 126.59 83.0713C124.637 82.916 122.685 82.7223 120.75 82.4012C119.78 82.2616 118.819 82.0644 117.855 81.8776L117.495 81.8078L117.146 81.7241L116.427 81.56C115.95 81.4448 115.47 81.3523 114.998 81.211L113.575 80.8305C113.337 80.7694 113.103 80.6979 112.876 80.6246L112.176 80.4082C111.234 80.1342 110.311 79.7939 109.38 79.471C108.918 79.307 108.464 79.122 108.006 78.9475L107.321 78.6769C107.092 78.5879 106.868 78.4815 106.643 78.3855L105.293 77.7904L103.967 77.1429C103.746 77.0347 103.524 76.93 103.306 76.8166L102.657 76.4675C102.226 76.2285 101.783 76.0033 101.364 75.7555L100.097 74.9963L99.7803 74.8061C99.6754 74.7415 99.574 74.6717 99.4709 74.6037L98.8539 74.197C98.0219 73.6735 97.237 73.0697 96.4382 72.4937C96.0502 72.1901 95.6674 71.8777 95.2829 71.5705C95.0923 71.4152 94.8948 71.2669 94.7096 71.1046L94.1537 70.6159L93.5996 70.1255C93.4143 69.9632 93.2291 69.8009 93.0543 69.6264L91.995 68.5932C91.8202 68.4187 91.6454 68.2442 91.4811 68.0697L90.9777 67.5269L90.4743 66.9859C90.31 66.8009 90.1562 66.609 89.9954 66.4205C88.7109 64.9212 87.5423 63.3268 86.4996 61.6509C84.4385 58.3086 82.8287 54.7091 81.712 50.9459C80.6021 47.1954 79.9764 43.267 80.0917 39.3299C80.1443 37.3541 80.4074 35.3896 80.8765 33.4695C81.3489 31.542 82.0624 29.6816 83.0002 27.932C83.9408 26.1874 85.1054 24.5728 86.4646 23.1293C86.7897 22.7575 87.1638 22.4312 87.5134 22.0821C87.6882 21.9076 87.863 21.7331 88.0535 21.576L88.6198 21.1031L89.1861 20.6284C89.3801 20.4766 89.5847 20.3335 89.7822 20.1869C89.9797 20.0403 90.1789 19.8884 90.3852 19.7523L91.0127 19.3527C91.4235 19.0734 91.8674 18.8518 92.2974 18.6092C92.5124 18.4836 92.7379 18.3823 92.9616 18.2776L93.6328 17.96C93.8583 17.8605 94.0908 17.775 94.3198 17.6808C94.5487 17.5865 94.776 17.4905 95.0189 17.4155L95.7181 17.1834L96.0677 17.0682L96.426 16.974L97.1426 16.7855C97.3804 16.7244 97.6251 16.686 97.8663 16.6337C98.1075 16.5813 98.3505 16.5307 98.5934 16.4975L99.3275 16.3963L99.6946 16.3457L100.063 16.3178L100.799 16.2602C101.046 16.2462 101.294 16.248 101.539 16.2427C101.783 16.2375 102.032 16.2235 102.278 16.2427C102.771 16.2672 103.264 16.2706 103.753 16.3352C104 16.3614 104.244 16.3823 104.489 16.4138L105.218 16.5342L105.583 16.5953L105.943 16.6773L106.665 16.8518C106.903 16.9164 107.137 16.9914 107.375 17.0612C107.613 17.131 107.849 17.1973 108.074 17.2898L108.773 17.5481C109.004 17.6354 109.226 17.7471 109.451 17.8448C109.908 18.035 110.336 18.2829 110.773 18.515C111.632 19.0062 112.439 19.5827 113.182 20.2357C114.679 21.5394 115.863 23.163 116.646 24.9861C117.398 26.8059 117.772 28.7593 117.745 30.7278C117.745 31.7001 117.645 32.6698 117.445 33.6213C117.249 34.5835 116.933 35.517 116.503 36.3997C115.642 38.1763 114.288 39.6679 112.601 40.6963C110.922 41.7138 108.991 42.241 107.027 42.2182C106.784 42.2182 106.541 42.1972 106.298 42.1833C106.055 42.1693 105.814 42.1309 105.575 42.0855C105.094 42.0076 104.62 41.8872 104.161 41.726C103.701 41.5654 103.256 41.3627 102.834 41.1204C102.413 40.8747 102.019 40.5864 101.658 40.2601C101.296 39.9334 100.976 39.5642 100.703 39.1606C100.428 38.7608 100.203 38.3288 100.034 37.8744C99.6982 36.9662 99.5484 36.0001 99.5932 35.0332C99.6312 34.074 99.7981 33.1242 100.09 32.2095C100.376 31.2978 100.739 30.4117 101.173 29.5603C100.757 30.4189 100.414 31.3109 100.147 32.2269C99.8772 33.1398 99.7314 34.0849 99.7139 35.0367C99.6896 35.9837 99.8554 36.926 100.202 37.8081C100.374 38.2457 100.601 38.6601 100.876 39.0419C101.147 39.4275 101.463 39.7791 101.818 40.089C102.172 40.3959 102.557 40.6655 102.967 40.8936C103.379 41.1176 103.812 41.3034 104.258 41.4485C104.705 41.5943 105.162 41.7012 105.627 41.7679C105.858 41.8063 106.092 41.822 106.326 41.8464C106.56 41.8709 106.795 41.8709 107.025 41.8656C108.91 41.8478 110.752 41.3037 112.343 40.295C113.922 39.2878 115.177 37.8475 115.957 36.1466C116.347 35.3024 116.628 34.4122 116.793 33.4974C116.963 32.5809 117.037 31.6492 117.013 30.7173C117 28.8549 116.608 27.0145 115.863 25.3073C115.098 23.6223 113.963 22.1311 112.542 20.9443C111.839 20.3491 111.078 19.8269 110.27 19.3858C109.857 19.1781 109.453 18.953 109.022 18.7855C108.808 18.6982 108.6 18.597 108.382 18.5202L107.726 18.2933C107.51 18.2096 107.286 18.1537 107.062 18.0909C106.838 18.0281 106.618 17.9652 106.393 17.9164L105.713 17.775L105.374 17.7052L105.024 17.6546L104.337 17.5551C104.106 17.5324 103.876 17.5167 103.638 17.4958C103.176 17.4452 102.713 17.4521 102.25 17.4382C102.019 17.4277 101.787 17.4504 101.551 17.4556C101.315 17.4609 101.088 17.4679 100.852 17.4871L100.153 17.5551L99.803 17.5883L99.4534 17.6424L98.7682 17.7506C98.5392 17.7872 98.3155 17.8483 98.0883 17.8937C97.861 17.9391 97.6356 17.9879 97.4136 18.0507L96.7476 18.241L96.4138 18.3352L96.0869 18.4504L95.4332 18.6808C95.2147 18.7541 95.0067 18.8553 94.7935 18.9425C94.5802 19.0298 94.367 19.1171 94.1572 19.2165L93.5384 19.5254C93.3322 19.6267 93.1242 19.7261 92.9267 19.8465C92.5316 20.0821 92.1226 20.2951 91.7468 20.5638L91.1718 20.946C90.983 21.0769 90.8047 21.2235 90.6212 21.3614C90.4376 21.4992 90.2541 21.6371 90.0758 21.7837L89.5515 22.241L89.0271 22.6982C88.8523 22.8518 88.6967 23.0211 88.5307 23.1816C88.2038 23.5097 87.8682 23.8256 87.5728 24.1816C86.3365 25.5513 85.2852 27.0768 84.4458 28.7191C83.6113 30.358 82.987 32.0953 82.5877 33.8901C82.1871 35.6907 81.9802 37.529 81.9707 39.3735C81.9393 43.0716 82.6052 46.7731 83.7344 50.3158C84.8699 53.862 86.4678 57.2435 88.487 60.3734C89.4945 61.9235 90.6194 63.3943 91.8517 64.773C92.0038 64.9475 92.1523 65.1221 92.3097 65.2966L92.7921 65.7939L93.2745 66.2913C93.4353 66.4571 93.5926 66.6264 93.7657 66.78L94.7777 67.7276C94.9525 67.8882 95.1273 68.0348 95.3021 68.1849L95.8265 68.6334L96.3508 69.0801C96.5256 69.2285 96.7162 69.3646 96.8979 69.506C97.2667 69.7869 97.6286 70.0732 98.0009 70.3489C98.763 70.8725 99.5093 71.4222 100.303 71.9004L100.89 72.2721C100.988 72.3332 101.084 72.3978 101.184 72.4466L101.486 72.6211L102.692 73.3192C103.098 73.5461 103.516 73.7485 103.926 73.9632L104.543 74.2826C104.751 74.3838 104.965 74.4798 105.174 74.5775L106.438 75.1621L107.723 75.6962C107.94 75.7834 108.149 75.8794 108.368 75.9579L109.022 76.1988C109.46 76.3576 109.895 76.5304 110.332 76.6752C111.217 76.9614 112.094 77.2651 112.995 77.5059L113.666 77.6979C113.888 77.7625 114.111 77.8253 114.339 77.8724L115.695 78.2057C116.144 78.3262 116.604 78.4029 117.058 78.5024L117.742 78.6455L118.091 78.7171L118.441 78.7764C119.359 78.9318 120.275 79.1028 121.199 79.2145C123.043 79.4832 124.905 79.6263 126.766 79.738C130.494 79.9098 134.23 79.7878 137.939 79.3733C141.646 78.9436 145.317 78.2437 148.921 77.2791L149.911 80.9789Z" fill="white"/>
</g>
<defs>
<clipPath id="clip0">
<rect width="303" height="309" fill="white"/>
</clipPath>
</defs>
</svg>
