<svg width="228" height="54" viewBox="0 0 228 54" fill="none" xmlns="http://www.w3.org/2000/svg">
<g clip-path="url(#clip0)">
<path d="M51.1058 27.0269C51.9304 27.217 52.7649 27.3681 53.606 27.4797C54.444 27.584 55.2877 27.6437 56.133 27.6587C57.8217 27.6808 59.5052 27.4802 61.1334 27.0627C62.7496 26.6479 64.2839 25.9947 65.6779 25.128C67.0638 24.2661 68.2759 23.1842 69.2589 21.9315C70.234 20.687 70.943 19.2799 71.3475 17.7865C71.7483 16.3087 71.791 14.7665 71.4727 13.2715C71.1544 11.7764 70.483 10.3659 69.507 9.142C68.5328 7.91578 67.3374 6.85607 65.9741 6.00996C65.2971 5.5783 64.5904 5.1885 63.8586 4.84307C63.4951 4.66409 63.1085 4.50658 62.7373 4.33656C62.3662 4.16653 61.9681 4.01978 61.5834 3.87302C60.0442 3.28248 58.4611 2.7962 56.8465 2.41796C53.612 1.66937 50.2836 1.33043 46.9516 1.41034C40.2752 1.55563 33.7369 3.20976 27.9004 6.23012C25.0156 7.74603 22.3519 9.61449 20.1652 11.8696C19.0739 12.983 18.1282 14.2127 17.3477 15.5332C16.5829 16.8271 16.0521 18.2293 15.7765 19.6836C15.5359 21.1289 15.5927 22.6035 15.9438 24.0291C16.2998 25.477 16.883 26.8682 17.6747 28.158C19.2594 30.7674 21.5326 33.0261 24.1001 34.9125C26.7039 36.7965 29.5601 38.3572 32.5968 39.555C35.6476 40.7622 38.8271 41.6656 42.0821 42.2504C48.5998 43.4352 55.3522 43.4281 61.9315 42.4723C65.2296 41.997 68.486 41.2977 71.6745 40.3801C74.8901 39.4602 78.0807 38.4347 81.2501 37.3554C87.5967 35.1952 93.8548 32.7952 100.124 30.4005C106.394 28.0059 112.648 25.5521 118.953 23.195C125.257 20.8379 131.609 18.5739 138.065 16.573C141.295 15.5672 144.549 14.6276 147.837 13.7864C151.126 12.9452 154.449 12.2096 157.811 11.6387C161.178 11.0498 164.583 10.6708 168.004 10.504C171.425 10.359 174.879 10.4664 178.272 11.0302C179.969 11.309 181.641 11.7081 183.272 12.224C183.68 12.3492 184.082 12.4906 184.486 12.6249C184.89 12.7591 185.29 12.9112 185.684 13.0723C186.478 13.3783 187.255 13.7291 188.017 14.1032C189.554 14.8473 190.98 15.7751 192.26 16.8629C193.561 17.9575 194.578 19.3131 195.233 20.8272C195.545 21.5944 195.72 22.4039 195.752 23.2237C195.78 24.0441 195.641 24.862 195.342 25.6345C194.727 27.1705 193.528 28.4437 191.973 29.2139C190.443 29.9648 188.719 30.305 186.994 30.1965C185.29 30.0955 183.623 29.6947 182.08 29.0153C183.635 29.6445 185.305 29.9937 187 30.0444C188.68 30.0997 190.345 29.7199 191.808 28.9473C192.165 28.7525 192.504 28.5297 192.821 28.2815C193.139 28.0374 193.432 27.7659 193.696 27.4707C193.963 27.1788 194.197 26.8629 194.396 26.5275C194.6 26.1965 194.766 25.8469 194.892 25.4841C195.024 25.1238 195.115 24.752 195.165 24.3745C195.219 23.9984 195.233 23.6184 195.208 23.2398C195.157 22.4801 194.973 21.7333 194.662 21.0295C194.001 19.6207 193.008 18.3685 191.756 17.3659C190.501 16.3492 189.111 15.4878 187.619 14.8029C186.873 14.4575 186.115 14.1336 185.334 13.8526C184.949 13.7041 184.551 13.5788 184.161 13.4428C183.77 13.3067 183.37 13.1886 182.969 13.0848C181.375 12.6182 179.745 12.2664 178.093 12.0324C174.776 11.5883 171.417 11.4791 168.075 11.7067C164.722 11.9292 161.388 12.3591 158.096 12.9935C151.499 14.2463 145.018 16.0701 138.646 18.1426C125.895 22.3199 113.473 27.3759 100.967 32.2815C97.8397 33.5117 94.6985 34.7186 91.5431 35.9022C88.391 37.0834 85.2234 38.2289 82.0271 39.3349C78.8307 40.441 75.6113 41.4826 72.3476 42.4204C69.0514 43.3706 65.6852 44.0962 62.2758 44.5914C55.4599 45.5704 48.4402 45.5614 41.6378 44.3068C38.2284 43.6866 34.8993 42.7315 31.7064 41.4575C28.4906 40.186 25.4719 38.5199 22.7308 36.5035C20.0037 34.465 17.5612 32.0185 15.8284 29.1083C14.9436 27.6473 14.2955 26.0726 13.9052 24.4353C13.5117 22.7728 13.4615 21.0558 13.7571 19.3757C14.0825 17.7171 14.7005 16.12 15.5861 14.649C16.4514 13.2058 17.5 11.8646 18.7094 10.6543C21.1076 8.24715 23.9616 6.31601 27.0022 4.76252C30.0501 3.22217 33.2918 2.04023 36.6529 1.24388C38.3271 0.843083 40.0258 0.537074 41.7398 0.327538C43.4529 0.114729 45.1791 0.0053344 46.9074 2.40682e-05C50.3679 -0.0240714 53.816 0.387105 57.1581 1.22241C58.8252 1.64295 60.4572 2.17592 62.0411 2.81707C62.4392 2.97457 62.8277 3.14997 63.2201 3.31642C63.6124 3.48286 63.9893 3.67435 64.374 3.86406C65.1467 4.24269 65.8902 4.67089 66.5991 5.14552C68.0403 6.0873 69.2955 7.25413 70.309 8.59435C71.325 9.94473 72.0121 11.4851 72.3226 13.1081C72.6256 14.7246 72.5395 16.3836 72.0707 17.9654C71.6066 19.5335 70.8159 21.0015 69.7436 22.2859C68.6829 23.5602 67.3893 24.6507 65.9221 25.5074C64.464 26.36 62.8679 26.9885 61.1949 27.3687C59.5312 27.7407 57.8191 27.8908 56.1099 27.8144C55.2605 27.7719 54.4142 27.6853 53.5752 27.5548C52.7429 27.4181 51.9187 27.2419 51.1058 27.0269Z" fill="white"/>
<path d="M0 36.568C2.00262 38.4445 4.22277 40.1084 6.61969 41.5292C9.00138 42.9583 11.4922 44.2234 14.0721 45.3145C19.2336 47.4827 24.6249 49.1419 30.1578 50.2649C35.6795 51.4029 41.2936 52.11 46.9416 52.3786C49.763 52.52 52.5901 52.5486 55.4038 52.4949C58.2207 52.4555 61.0336 52.281 63.8312 51.9723C69.4258 51.3566 74.9531 50.2219 80.4227 48.8957C85.8923 47.5695 91.2927 45.9624 96.6469 44.2317C102.001 42.501 107.315 40.6522 112.6 38.7229C117.885 36.7935 123.147 34.798 128.407 32.7863C131.036 31.7781 133.672 30.7806 136.315 29.7939C138.957 28.8071 141.608 27.8329 144.267 26.8712C146.933 25.9227 149.612 24.9974 152.333 24.1508C153.693 23.7266 155.068 23.324 156.455 22.9571C157.841 22.5902 159.228 22.2412 160.626 21.9423C166.216 20.7199 171.892 19.8729 177.612 19.408C180.469 19.1694 183.333 19.0334 186.205 19C189.076 18.9731 191.949 19.0572 194.813 19.2702C197.683 19.4761 200.538 19.8346 203.364 20.3441C206.205 20.8463 208.997 21.5695 211.709 22.506C213.067 22.9786 214.394 23.5248 215.684 24.1419C216.982 24.7554 218.23 25.4564 219.419 26.2394C221.831 27.7952 223.886 29.7823 225.465 32.0847C226.244 33.244 226.862 34.4907 227.304 35.7949C227.752 37.1007 227.985 38.4619 227.996 39.8325C228.006 41.204 227.765 42.5671 227.283 43.863C226.797 45.1516 226.071 46.3502 225.136 47.4031C224.206 48.4456 223.112 49.3507 221.89 50.0877C221.285 50.4521 220.657 50.7826 220.009 51.0774C219.359 51.3662 218.696 51.6227 218.02 51.847C215.307 52.7258 212.443 53.0999 209.608 53.1643C212.443 52.9853 215.268 52.5056 217.895 51.5392C218.549 51.294 219.192 51.0238 219.819 50.7213C220.438 50.4152 221.038 50.0745 221.613 49.7011C222.758 48.9592 223.776 48.0608 224.632 47.0362C226.329 44.9836 227.2 42.4434 227.096 39.8558C227.045 38.574 226.786 37.3068 226.327 36.0973C225.876 34.8859 225.26 33.7329 224.496 32.6664C222.953 30.5239 220.967 28.689 218.653 27.2685C217.501 26.5454 216.294 25.9012 215.041 25.341C213.787 24.7736 212.498 24.2752 211.182 23.8484C208.535 22.9912 205.819 22.3329 203.06 21.8796C200.292 21.4239 197.498 21.1156 194.692 20.9561C191.882 20.7897 189.063 20.7521 186.247 20.8165C183.432 20.881 180.614 21.0367 177.808 21.2926C172.195 21.8003 166.628 22.6825 161.151 23.9325C159.786 24.2475 158.424 24.5786 157.074 24.9419C155.724 25.3052 154.382 25.7007 153.053 26.1195C150.383 26.9589 147.731 27.8842 145.089 28.8346C139.802 30.7406 134.553 32.772 129.286 34.7693C124.018 36.7667 118.737 38.7515 113.423 40.6755C108.109 42.5995 102.767 44.45 97.3508 46.1342C91.9351 47.8183 86.4731 49.3843 80.9285 50.6944C78.1553 51.3459 75.3512 51.9473 72.5434 52.4251C69.7355 52.903 66.8891 53.32 64.0312 53.5938C61.1743 53.8646 58.3044 54.0008 55.4326 54.0019C52.569 54.0233 49.7034 53.9249 46.8493 53.7298C43.9953 53.5347 41.147 53.2377 38.318 52.835C35.489 52.4323 32.681 51.9079 29.9059 51.2564C27.1307 50.605 24.3882 49.8443 21.6957 48.9494C19.0028 48.0603 16.3697 47.0215 13.8106 45.8389C11.2473 44.6639 8.782 43.3125 6.43507 41.7959C4.08845 40.2806 1.93016 38.5272 0 36.568Z" fill="white"/>
</g>
<defs>
<clipPath id="clip0">
<rect width="228" height="54" fill="white"/>
</clipPath>
</defs>
</svg>
