<svg width="407" height="92" viewBox="0 0 407 92" fill="none" xmlns="http://www.w3.org/2000/svg">
<path d="M315.772 46.0459C314.3 46.3698 312.811 46.6273 311.309 46.8173C309.813 46.995 308.307 47.0968 306.798 47.1222C303.784 47.16 300.779 46.8181 297.872 46.1068C294.987 45.4001 292.248 44.2873 289.76 42.8107C287.286 41.3424 285.122 39.499 283.367 37.3648C281.627 35.2447 280.361 32.8472 279.639 30.3029C278.924 27.7852 278.847 25.1578 279.416 22.6107C279.984 20.0636 281.182 17.6606 282.925 15.5753C284.664 13.4862 286.798 11.6808 289.231 10.2393C290.44 9.50384 291.701 8.83975 293.008 8.25123C293.656 7.94631 294.346 7.67796 295.009 7.38829C295.672 7.09861 296.382 6.84859 297.069 6.59856C299.817 5.59246 302.643 4.76397 305.525 4.11957C311.299 2.84418 317.24 2.26674 323.188 2.40288C335.106 2.65041 346.777 5.46856 357.196 10.6143C362.346 13.197 367.101 16.3803 371.004 20.2223C372.952 22.1192 374.64 24.2144 376.033 26.464C377.399 28.6684 378.346 31.0573 378.838 33.535C379.268 35.9974 379.166 38.5098 378.54 40.9385C377.904 43.4053 376.863 45.7756 375.45 47.9729C372.621 52.4186 368.563 56.2667 363.98 59.4806C359.332 62.6904 354.233 65.3493 348.812 67.3902C343.367 69.4468 337.691 70.986 331.88 71.9822C320.246 74.0008 308.192 73.9886 296.448 72.3603C290.56 71.5505 284.747 70.3591 279.055 68.7958C273.315 67.2285 267.62 65.4814 261.962 63.6427C250.633 59.9623 239.462 55.8734 228.27 51.7936C217.078 47.7138 205.913 43.5333 194.66 39.5175C183.406 35.5018 172.067 31.6446 160.542 28.2356C154.778 26.5219 148.969 24.9211 143.098 23.488C137.228 22.0549 131.295 20.8017 125.294 19.829C119.284 18.8257 113.206 18.1799 107.099 17.8958C100.991 17.6488 94.8255 17.8318 88.7695 18.7922C85.7402 19.2672 82.7562 19.9472 79.8435 20.8261C79.1157 21.0395 78.3981 21.2804 77.6772 21.5091C76.9562 21.7378 76.2422 21.997 75.5384 22.2714C74.1205 22.7928 72.7335 23.3904 71.374 24.0277C68.6299 25.2955 66.0839 26.8762 63.8006 28.7295C61.4777 30.5943 59.6627 32.9038 58.493 35.4835C57.9356 36.7905 57.6226 38.1696 57.5661 39.5663C57.5167 40.9641 57.7648 42.3576 58.2974 43.6736C59.3967 46.2905 61.5361 48.4597 64.3122 49.772C67.0428 51.0512 70.1202 51.6308 73.2004 51.446C76.2413 51.2739 79.2177 50.591 81.972 49.4335C79.1958 50.5056 76.2159 51.1005 73.1901 51.1868C70.1896 51.281 67.2185 50.634 64.6074 49.3176C63.9692 48.9858 63.3639 48.6063 62.7981 48.1833C62.2298 47.7675 61.7068 47.305 61.2361 46.8021C60.7603 46.3047 60.3417 45.7664 59.9865 45.1951C59.6232 44.6312 59.3264 44.0355 59.1007 43.4175C58.8664 42.8036 58.7031 42.1702 58.6132 41.5269C58.5178 40.8862 58.4925 40.2388 58.5377 39.5938C58.6275 38.2995 58.9569 37.0272 59.5126 35.828C60.6922 33.4279 62.4652 31.2946 64.7001 29.5864C66.9395 27.8543 69.4216 26.3867 72.0847 25.2199C73.4167 24.6314 74.7693 24.0795 76.1631 23.6008C76.8498 23.3477 77.5605 23.1343 78.2574 22.9025C78.9543 22.6708 79.6683 22.4696 80.3859 22.2927C83.2308 21.4978 86.1404 20.8984 89.0888 20.4998C95.0099 19.7431 101.006 19.5571 106.972 19.9448C112.958 20.3239 118.909 21.0563 124.786 22.1372C136.562 24.2716 148.131 27.3787 159.505 30.9097C182.266 38.0265 204.441 46.6404 226.766 54.9983C232.348 57.0941 237.956 59.1502 243.588 61.1668C249.215 63.1792 254.869 65.1307 260.575 67.0151C266.281 68.8995 272.028 70.6741 277.854 72.2719C283.738 73.8908 289.747 75.1269 295.833 75.9706C308 77.6385 320.531 77.6232 332.674 75.4858C338.76 74.4291 344.702 72.8019 350.402 70.6314C356.143 68.4651 361.531 65.6266 366.424 62.1913C371.292 58.7183 375.652 54.55 378.746 49.5921C380.325 47.1028 381.482 44.4201 382.179 41.6306C382.881 38.7981 382.971 35.8729 382.443 33.0106C381.862 30.1848 380.759 27.4637 379.178 24.9577C377.634 22.4988 375.762 20.2139 373.603 18.1519C369.322 14.0508 364.227 10.7607 358.799 8.11399C353.359 5.4897 347.572 3.47603 341.572 2.11929C338.584 1.43644 335.551 0.915093 332.492 0.558105C329.433 0.195542 326.352 0.0091651 323.267 0.000117864C317.09 -0.0409337 310.934 0.659589 304.968 2.0827C301.993 2.79918 299.079 3.7072 296.252 4.79953C295.541 5.06786 294.848 5.36669 294.147 5.65027C293.447 5.93384 292.774 6.26008 292.088 6.5833C290.708 7.22837 289.381 7.95788 288.115 8.76652C285.543 10.371 283.302 12.359 281.493 14.6423C279.679 16.943 278.453 19.5673 277.899 22.3323C277.358 25.0864 277.511 27.9128 278.348 30.6078C279.177 33.2794 280.588 35.7804 282.502 37.9686C284.396 40.1396 286.705 41.9975 289.324 43.4571C291.927 44.9098 294.776 45.9806 297.762 46.6283C300.732 47.2621 303.789 47.5177 306.84 47.3875C308.356 47.3152 309.867 47.1676 311.364 46.9454C312.85 46.7124 314.321 46.4122 315.772 46.0459Z" fill="white"/>
<path d="M407 62.301C403.425 65.4979 399.462 68.3327 395.183 70.7533C390.932 73.1881 386.485 75.3435 381.88 77.2023C372.666 80.8963 363.042 83.7231 353.166 85.6364C343.309 87.5752 333.287 88.7798 323.205 89.2375C318.169 89.4784 313.122 89.5272 308.099 89.4357C303.071 89.3685 298.05 89.0713 293.056 88.5453C283.069 87.4964 273.202 85.5632 263.438 83.3037C253.675 81.0443 244.035 78.3062 234.477 75.3576C224.919 72.409 215.433 69.2592 205.999 65.9722C196.565 62.6852 187.172 59.2853 177.783 55.858C173.088 54.1403 168.383 52.4409 163.666 50.7598C158.949 49.0787 154.217 47.4189 149.47 45.7805C144.712 44.1644 139.929 42.588 135.072 41.1457C132.644 40.4231 130.19 39.737 127.714 39.1119C125.239 38.4868 122.764 37.8922 120.268 37.383C110.291 35.3004 100.157 33.8575 89.947 33.0654C84.8477 32.6588 79.7347 32.4271 74.608 32.3702C69.4824 32.3244 64.3533 32.4678 59.2415 32.8306C54.1185 33.1814 49.0222 33.7922 43.9779 34.6601C38.9052 35.5158 33.9224 36.7479 29.0817 38.3435C26.657 39.1485 24.2876 40.0791 21.9855 41.1305C19.6681 42.1757 17.4397 43.3701 15.3184 44.7041C11.0122 47.3547 7.34308 50.74 4.52481 54.6628C3.13397 56.6379 2.0311 58.7619 1.24274 60.9837C0.443512 63.2084 0.026886 65.5276 0.00686646 67.8627C-0.0115662 70.1993 0.419159 72.5216 1.28055 74.7294C2.14694 76.9249 3.44403 78.9669 5.11185 80.7607C6.77206 82.5368 8.72601 84.0789 10.907 85.3345C11.9874 85.9554 13.1086 86.5184 14.2645 87.0207C15.4249 87.5127 16.6081 87.9497 17.8143 88.3319C22.6584 89.829 27.7703 90.4663 32.8306 90.5761C27.7703 90.2712 22.7271 89.454 18.0375 87.8074C16.8702 87.3897 15.7236 86.9293 14.6044 86.4139C13.4982 85.8925 12.4286 85.312 11.4013 84.6759C9.35776 83.4119 7.54068 81.8813 6.01135 80.1357C2.98322 76.6386 1.42746 72.3109 1.61356 67.9023C1.7048 65.7186 2.16779 63.5597 2.98679 61.499C3.79196 59.4351 4.89026 57.4708 6.2551 55.6538C9.00967 52.0036 12.5552 48.8774 16.6848 46.4574C18.7415 45.2254 20.8963 44.1278 23.1321 43.1734C25.3708 42.2067 27.6716 41.3576 30.0224 40.6304C34.7464 39.1702 39.5945 38.0485 44.5203 37.2763C49.4617 36.4999 54.4489 35.9746 59.4577 35.7029C64.4734 35.4193 69.5063 35.3553 74.5324 35.4651C79.5584 35.5749 84.588 35.8401 89.5969 36.2762C99.6166 37.1411 109.553 38.6442 119.331 40.7737C121.768 41.3104 124.199 41.8745 126.609 42.4935C129.019 43.1124 131.415 43.7863 133.788 44.4998C138.553 45.9299 143.287 47.5063 148.004 49.1254C157.442 52.3728 166.811 55.8337 176.214 59.2366C185.617 62.6394 195.044 66.021 204.53 69.2989C214.016 72.5767 223.553 75.7296 233.22 78.5989C242.888 81.4682 252.638 84.1362 262.535 86.3682C267.486 87.4781 272.491 88.5026 277.504 89.3168C282.516 90.1309 287.597 90.8413 292.699 91.3079C297.799 91.7691 302.922 92.0012 308.048 92.0031C313.16 92.0397 318.275 91.872 323.37 91.5396C328.465 91.2072 333.549 90.7011 338.599 90.015C343.649 89.3289 348.661 88.4355 353.615 87.3256C358.569 86.2157 363.465 84.9198 368.271 83.3952C373.078 81.8803 377.779 80.1106 382.347 78.0958C386.922 76.094 391.323 73.7915 395.513 71.2077C399.702 68.6261 403.555 65.6389 407 62.301Z" fill="white"/>
</svg>
