<svg width="407" height="92" viewBox="0 0 407 92" fill="none" xmlns="http://www.w3.org/2000/svg">
<path d="M91.2281 46.046C92.7001 46.3699 94.1897 46.6274 95.6911 46.8174C97.187 46.9951 98.6932 47.0969 100.202 47.1224C103.217 47.1601 106.222 46.8182 109.128 46.107C112.013 45.4002 114.752 44.2874 117.241 42.8108C119.714 41.3425 121.878 39.4991 123.633 37.365C125.374 35.2448 126.639 32.8474 127.361 30.303C128.077 27.7854 128.153 25.1579 127.585 22.6108C127.017 20.0638 125.818 17.6607 124.076 15.5755C122.337 13.4864 120.203 11.6809 117.769 10.2394C116.561 9.50396 115.299 8.83987 113.993 8.25135C113.344 7.94643 112.654 7.67808 111.991 7.38841C111.329 7.09874 110.618 6.84871 109.932 6.59868C107.184 5.59258 104.358 4.76409 101.476 4.11969C95.7019 2.8443 89.7605 2.26686 83.8126 2.403C71.8946 2.65053 60.2231 5.46868 49.8044 10.6145C44.6547 13.1971 39.8999 16.3804 35.9965 20.2224C34.0484 22.1193 32.3601 24.2145 30.967 26.4641C29.6017 28.6686 28.6541 31.0575 28.1622 33.5352C27.7328 35.9975 27.8341 38.5099 28.4608 40.9386C29.0963 43.4054 30.1374 45.7757 31.5506 47.9731C34.3795 52.4188 38.4374 56.2668 43.0206 59.4807C47.6686 62.6906 52.7672 65.3494 58.188 67.3903C63.6339 69.4469 69.3095 70.9861 75.12 71.9823C86.7547 74.0009 98.8083 73.9887 110.553 72.3605C116.44 71.5506 122.253 70.3592 127.945 68.7959C133.685 67.2287 139.381 65.4815 145.038 63.6428C156.368 59.9625 167.539 55.8735 178.731 51.7937C189.923 47.7139 201.087 43.5334 212.341 39.5177C223.594 35.5019 234.934 31.6447 246.459 28.2357C252.223 26.522 258.032 24.9212 263.902 23.4881C269.773 22.055 275.705 20.8018 281.706 19.8291C287.716 18.8259 293.795 18.18 299.902 17.8959C306.009 17.6489 312.175 17.8319 318.231 18.7924C321.26 19.2674 324.244 19.9473 327.157 20.8262C327.885 21.0396 328.602 21.2805 329.323 21.5092C330.044 21.7379 330.758 21.9971 331.462 22.2715C332.88 22.7929 334.267 23.3906 335.626 24.0278C338.371 25.2957 340.917 26.8763 343.2 28.7297C345.523 30.5944 347.338 32.904 348.507 35.4836C349.065 36.7906 349.378 38.1697 349.434 39.5665C349.484 40.9642 349.236 42.3577 348.703 43.6737C347.604 46.2906 345.464 48.4598 342.688 49.7721C339.958 51.0513 336.88 51.6309 333.8 51.4461C330.759 51.274 327.783 50.5911 325.029 49.4336C327.805 50.5057 330.785 51.1006 333.81 51.1869C336.811 51.2812 339.782 50.6341 342.393 49.3178C343.031 48.9859 343.637 48.6064 344.202 48.1835C344.771 47.7676 345.294 47.3051 345.764 46.8022C346.24 46.3049 346.659 45.7665 347.014 45.1952C347.377 44.6313 347.674 44.0356 347.9 43.4176C348.134 42.8037 348.297 42.1703 348.387 41.5271C348.483 40.8864 348.508 40.2389 348.463 39.5939C348.373 38.2996 348.044 37.0273 347.488 35.8282C346.308 33.428 344.535 31.2947 342.3 29.5865C340.061 27.8545 337.579 26.3868 334.916 25.22C333.584 24.6315 332.231 24.0797 330.837 23.6009C330.151 23.3479 329.44 23.1344 328.743 22.9027C328.046 22.6709 327.332 22.4697 326.615 22.2928C323.77 21.4979 320.86 20.8985 317.912 20.4999C311.991 19.7433 305.995 19.5572 300.029 19.945C294.043 20.324 288.091 21.0564 282.214 22.1373C270.439 24.2717 258.869 27.3789 247.496 30.9098C224.734 38.0266 202.56 46.6406 180.234 54.9984C174.652 57.0942 169.045 59.1504 163.412 61.1669C157.785 63.1793 152.131 65.1308 146.425 67.0152C140.72 68.8996 134.973 70.6743 129.147 72.272C123.263 73.8909 117.254 75.1271 111.167 75.9707C99.0006 77.6386 86.4698 77.6234 74.3269 75.4859C68.2408 74.4292 62.298 72.802 56.5985 70.6316C50.8579 68.4652 45.4694 65.6267 40.5762 62.1914C35.7081 58.7184 31.3481 54.5502 28.2549 49.5922C26.6754 47.103 25.5186 44.4202 24.8218 41.6308C24.1194 38.7983 24.0297 35.873 24.5574 33.0107C25.1383 30.1849 26.2415 27.4638 27.8223 24.9578C29.3669 22.499 31.2388 20.214 33.3976 18.152C37.6787 14.0509 42.7734 10.7608 48.2011 8.11412C53.6418 5.48982 59.4286 3.47615 65.4284 2.11941C68.4169 1.43656 71.4493 0.915215 74.5089 0.558227C77.567 0.195664 80.6484 0.00928717 83.7336 0.000239935C89.9109 -0.0408116 96.066 0.659711 102.032 2.08282C105.008 2.7993 107.921 3.70732 110.749 4.79965C111.459 5.06798 112.153 5.36681 112.853 5.65039C113.553 5.93396 114.226 6.26021 114.913 6.58342C116.292 7.22849 117.62 7.958 118.885 8.76665C121.458 10.3711 123.698 12.3591 125.507 14.6424C127.321 16.9431 128.548 19.5674 129.102 22.3325C129.643 25.0866 129.489 27.9129 128.652 30.608C127.824 33.2795 126.412 35.7805 124.498 37.9687C122.605 40.1397 120.296 41.9976 117.677 43.4572C115.074 44.9099 112.224 45.9807 109.238 46.6284C106.268 47.2622 103.212 47.5178 100.161 47.3876C98.6446 47.3153 97.134 47.1677 95.6362 46.9455C94.1505 46.7126 92.6792 46.4123 91.2281 46.046Z" fill="white"/>
<path d="M0 62.3011C3.57485 65.498 7.53801 68.3328 11.8167 70.7535C16.0683 73.1882 20.5145 75.3436 25.12 77.2024C34.3336 80.8965 43.9576 83.7232 53.8343 85.6365C63.691 87.5754 73.7126 88.7799 83.795 89.2376C88.8313 89.4785 93.8779 89.5273 98.9006 89.4358C103.929 89.3686 108.95 89.0714 113.944 88.5454C123.931 87.4965 133.798 85.5633 143.562 83.3039C153.325 81.0444 162.965 78.3063 172.523 75.3577C182.081 72.4091 191.567 69.2593 201.001 65.9723C210.435 62.6853 219.828 59.2854 229.217 55.8582C233.912 54.1404 238.617 52.441 243.334 50.7599C248.051 49.0788 252.783 47.419 257.53 45.7806C262.288 44.1645 267.071 42.5881 271.928 41.1458C274.356 40.4232 276.81 39.7371 279.286 39.1121C281.761 38.487 284.236 37.8924 286.732 37.3831C296.709 35.3005 306.843 33.8576 317.053 33.0655C322.152 32.6589 327.265 32.4272 332.392 32.3703C337.518 32.3246 342.647 32.4679 347.759 32.8307C352.882 33.1815 357.978 33.7923 363.022 34.6602C368.095 35.5159 373.078 36.748 377.918 38.3436C380.343 39.1487 382.712 40.0792 385.014 41.1306C387.332 42.1758 389.56 43.3702 391.682 44.7042C395.988 47.3548 399.657 50.7401 402.475 54.6629C403.866 56.638 404.969 58.762 405.757 60.9839C406.556 63.2086 406.973 65.5277 406.993 67.8628C407.012 70.1994 406.581 72.5217 405.719 74.7296C404.853 76.925 403.556 78.967 401.888 80.7609C400.228 82.5369 398.274 84.079 396.093 85.3346C395.013 85.9555 393.891 86.5186 392.735 87.0208C391.575 87.5128 390.392 87.9498 389.186 88.332C384.342 89.8291 379.23 90.4664 374.169 90.5762C379.23 90.2713 384.273 89.4541 388.963 87.8075C390.13 87.3898 391.276 86.9294 392.396 86.4141C393.502 85.8926 394.571 85.3122 395.599 84.676C397.642 83.412 399.459 81.8814 400.989 80.1358C404.017 76.6387 405.573 72.3111 405.386 67.9024C405.295 65.7187 404.832 63.5598 404.013 61.4991C403.208 59.4352 402.11 57.471 400.745 55.6539C397.99 52.0038 394.445 48.8775 390.315 46.4575C388.259 45.2255 386.104 44.128 383.868 43.1735C381.629 42.2068 379.328 41.3577 376.978 40.6305C372.254 39.1703 367.405 38.0486 362.48 37.2764C357.538 36.5001 352.551 35.9747 347.542 35.703C342.527 35.4195 337.494 35.3555 332.468 35.4652C327.442 35.575 322.412 35.8403 317.403 36.2763C307.383 37.1412 297.447 38.6443 287.669 40.7738C285.232 41.3105 282.801 41.8746 280.391 42.4936C277.981 43.1126 275.585 43.7864 273.212 44.4999C268.447 45.93 263.713 47.5064 258.996 49.1256C249.558 52.3729 240.189 55.8338 230.786 59.2367C221.383 62.6396 211.956 66.0211 202.47 69.299C192.984 72.5769 183.447 75.7297 173.78 78.599C164.112 81.4683 154.362 84.1363 144.465 86.3683C139.514 87.4782 134.509 88.5028 129.496 89.3169C124.484 90.131 119.403 90.8415 114.301 91.308C109.201 91.7693 104.078 92.0013 98.9521 92.0032C93.8402 92.0398 88.7249 91.8721 83.6302 91.5397C78.5355 91.2074 73.451 90.7012 68.401 90.0151C63.3509 89.3291 58.3385 88.4357 53.3846 87.3258C48.4306 86.2159 43.5351 84.92 38.7287 83.3954C33.9218 81.8804 29.2214 80.1108 24.6531 78.0959C20.0775 76.0941 15.6766 73.7917 11.4872 71.2078C7.29824 68.6262 3.4455 65.639 0 62.3011Z" fill="white"/>
</svg>
