<svg width="228" height="54" viewBox="0 0 228 54" fill="none" xmlns="http://www.w3.org/2000/svg">
<g clip-path="url(#clip0)">
<path d="M176.895 27.0269C176.07 27.217 175.236 27.3681 174.395 27.4797C173.557 27.584 172.713 27.6437 171.867 27.6587C170.179 27.6808 168.495 27.4802 166.867 27.0627C165.251 26.6479 163.717 25.9947 162.323 25.128C160.937 24.2661 159.725 23.1842 158.742 21.9315C157.767 20.687 157.057 19.2799 156.653 17.7865C156.252 16.3087 156.209 14.7665 156.528 13.2715C156.846 11.7764 157.518 10.3659 158.493 9.142C159.468 7.91578 160.663 6.85607 162.026 6.00996C162.703 5.5783 163.41 5.1885 164.142 4.84307C164.505 4.66409 164.892 4.50658 165.263 4.33656C165.634 4.16653 166.032 4.01978 166.417 3.87302C167.956 3.28248 169.539 2.7962 171.154 2.41796C174.389 1.66937 177.717 1.33043 181.049 1.41034C187.725 1.55563 194.264 3.20976 200.1 6.23012C202.985 7.74603 205.649 9.61449 207.835 11.8696C208.927 12.983 209.872 14.2127 210.653 15.5332C211.418 16.8271 211.948 18.2293 212.224 19.6836C212.465 21.1289 212.408 22.6035 212.057 24.0291C211.701 25.477 211.117 26.8682 210.326 28.158C208.741 30.7674 206.468 33.0261 203.9 34.9125C201.297 36.7965 198.44 38.3572 195.404 39.555C192.353 40.7622 189.173 41.6656 185.918 42.2504C179.401 43.4352 172.648 43.4281 166.069 42.4723C162.771 41.997 159.515 41.2977 156.326 40.3801C153.11 39.4602 149.92 38.4347 146.75 37.3554C140.404 35.1952 134.146 32.7952 127.876 30.4005C121.606 28.0059 115.352 25.5521 109.048 23.195C102.744 20.8379 96.3912 18.5739 89.935 16.573C86.7059 15.5672 83.4519 14.6276 80.1632 13.7864C76.8745 12.9452 73.5512 12.2096 70.1894 11.6387C66.8227 11.0498 63.4174 10.6708 59.9964 10.504C56.5751 10.359 53.121 10.4664 49.7285 11.0302C48.0314 11.309 46.3598 11.7081 44.7281 12.224C44.3204 12.3492 43.9184 12.4906 43.5146 12.6249C43.1107 12.7591 42.7107 12.9112 42.3164 13.0723C41.5221 13.3783 40.7451 13.7291 39.9836 14.1032C38.4463 14.8473 37.02 15.7751 35.7409 16.8629C34.4397 17.9575 33.4229 19.3131 32.7677 20.8272C32.4554 21.5944 32.28 22.4039 32.2484 23.2237C32.2207 24.0441 32.3597 24.862 32.6581 25.6345C33.2739 27.1705 34.4724 28.4437 36.0275 29.2139C37.5573 29.9648 39.2812 30.305 41.0067 30.1965C42.7102 30.0955 44.3776 29.6947 45.9205 29.0153C44.3653 29.6445 42.6959 29.9937 41.0009 30.0444C39.3201 30.0997 37.6556 29.7199 36.1929 28.9473C35.8354 28.7525 35.4963 28.5297 35.1794 28.2815C34.861 28.0374 34.568 27.7659 34.3043 27.4707C34.0378 27.1788 33.8033 26.8629 33.6043 26.5275C33.4008 26.1965 33.2345 25.8469 33.1081 25.4841C32.9768 25.1238 32.8853 24.752 32.835 24.3745C32.7815 23.9984 32.7674 23.6184 32.7927 23.2398C32.843 22.4801 33.0275 21.7333 33.3389 21.0295C33.9996 19.6207 34.9929 18.3685 36.2448 17.3659C37.4993 16.3492 38.8898 15.4878 40.3817 14.8029C41.1279 14.4575 41.8856 14.1336 42.6664 13.8526C43.0511 13.7041 43.4492 13.5788 43.8396 13.4428C44.23 13.3067 44.63 13.1886 45.032 13.0848C46.6257 12.6182 48.2556 12.2664 49.9073 12.0324C53.2243 11.5883 56.5831 11.4791 59.9253 11.7067C63.2788 11.9292 66.6127 12.3591 69.9048 12.9935C76.5014 14.2463 82.9826 16.0701 89.3542 18.1426C102.105 22.3199 114.527 27.3759 127.034 32.2815C130.161 33.5117 133.302 34.7186 136.457 35.9022C139.609 37.0834 142.777 38.2289 145.973 39.3349C149.17 40.441 152.389 41.4826 155.653 42.4204C158.949 43.3706 162.315 44.0962 165.725 44.5914C172.541 45.5704 179.56 45.5614 186.363 44.3068C189.772 43.6866 193.101 42.7315 196.294 41.4575C199.51 40.186 202.529 38.5199 205.27 36.5035C207.997 34.465 210.439 32.0185 212.172 29.1083C213.057 27.6473 213.705 26.0726 214.095 24.4353C214.489 22.7728 214.539 21.0558 214.243 19.3757C213.918 17.7171 213.3 16.12 212.414 14.649C211.549 13.2058 210.5 11.8646 209.291 10.6543C206.893 8.24715 204.039 6.31601 200.998 4.76252C197.95 3.22217 194.709 2.04023 191.348 1.24388C189.673 0.843083 187.975 0.537074 186.261 0.327538C184.548 0.114729 182.821 0.0053344 181.093 2.40682e-05C177.633 -0.0240714 174.185 0.387105 170.842 1.22241C169.175 1.64295 167.543 2.17592 165.959 2.81707C165.561 2.97457 165.173 3.14997 164.78 3.31642C164.388 3.48286 164.011 3.67435 163.627 3.86406C162.854 4.24269 162.11 4.67089 161.401 5.14552C159.96 6.0873 158.705 7.25413 157.691 8.59435C156.676 9.94473 155.988 11.4851 155.678 13.1081C155.375 14.7246 155.461 16.3836 155.93 17.9654C156.394 19.5335 157.185 21.0015 158.257 22.2859C159.318 23.5602 160.611 24.6507 162.078 25.5074C163.536 26.36 165.133 26.9885 166.806 27.3687C168.469 27.7407 170.181 27.8908 171.891 27.8144C172.74 27.7719 173.586 27.6853 174.425 27.5548C175.258 27.4181 176.082 27.2419 176.895 27.0269Z" fill="white"/>
<path d="M228 36.568C225.997 38.4445 223.777 40.1084 221.38 41.5292C218.999 42.9583 216.508 44.2234 213.928 45.3145C208.766 47.4827 203.375 49.1419 197.842 50.2649C192.321 51.4029 186.706 52.11 181.058 52.3786C178.237 52.52 175.41 52.5486 172.596 52.4949C169.779 52.4555 166.966 52.281 164.169 51.9723C158.574 51.3566 153.047 50.2219 147.577 48.8957C142.108 47.5695 136.707 45.9624 131.353 44.2317C125.999 42.501 120.685 40.6522 115.4 38.7229C110.115 36.7935 104.853 34.798 99.5932 32.7863C96.9636 31.7781 94.3275 30.7806 91.685 29.7939C89.0425 28.8071 86.3917 27.8329 83.7326 26.8712C81.067 25.9227 78.388 24.9974 75.6666 24.1508C74.3069 23.7266 72.9319 23.324 71.5452 22.9571C70.1586 22.5902 68.772 22.2412 67.3738 21.9423C61.7844 20.7199 56.1079 19.8729 50.388 19.408C47.5314 19.1694 44.6671 19.0334 41.7952 19C38.9238 18.9731 36.0505 19.0572 33.1869 19.2702C30.317 19.4761 27.4621 19.8346 24.6363 20.3441C21.7946 20.8463 19.0032 21.5695 16.2915 22.506C14.9332 22.9786 13.6058 23.5248 12.3162 24.1419C11.018 24.7554 9.76967 25.4564 8.58133 26.2394C6.16901 27.7952 4.11357 29.7823 2.53477 32.0847C1.75565 33.244 1.13782 34.4907 0.696182 35.7949C0.248444 37.1007 0.0150604 38.4619 0.00386047 39.8325C-0.00646973 41.204 0.234818 42.5671 0.717361 43.863C1.20271 45.1516 1.92934 46.3502 2.86365 47.4031C3.79369 48.4456 4.88829 49.3507 6.11005 50.0877C6.7153 50.4521 7.3434 50.7826 7.99094 51.0774C8.64099 51.3662 9.30382 51.6227 9.97951 51.847C12.6931 52.7258 15.5568 53.0999 18.3916 53.1643C15.5568 52.9853 12.7316 52.5056 10.1045 51.5392C9.45065 51.294 8.8083 51.0238 8.18134 50.7213C7.56166 50.4152 6.96243 50.0745 6.38696 49.7011C5.24219 48.9592 4.22426 48.0608 3.36754 47.0362C1.67119 44.9836 0.799652 42.4434 0.9039 39.8558C0.955032 38.574 1.2144 37.3068 1.67319 36.0973C2.12425 34.8859 2.73952 33.7329 3.50409 32.6664C5.0472 30.5239 7.03339 28.689 9.34676 27.2685C10.4989 26.5454 11.706 25.9012 12.9586 25.341C14.2127 24.7736 15.5015 24.2752 16.8184 23.8484C19.4648 22.9912 22.1807 22.3329 24.9401 21.8796C27.7083 21.4239 30.5021 21.1156 33.308 20.9561C36.1178 20.7897 38.9372 20.7521 41.7528 20.8165C44.5684 20.881 47.3859 21.0367 50.1918 21.2926C55.8049 21.8003 61.3715 22.6825 66.8487 23.9325C68.2142 24.2475 69.5759 24.5786 70.9259 24.9419C72.276 25.3052 73.6184 25.7007 74.9474 26.1195C77.6168 26.9589 80.2689 27.8842 82.9113 28.8346C88.1982 30.7406 93.4467 32.772 98.7144 34.7693C103.982 36.7667 109.263 38.7515 114.577 40.6755C119.891 42.5995 125.233 44.45 130.649 46.1342C136.065 47.8183 141.527 49.3843 147.071 50.6944C149.845 51.3459 152.649 51.9473 155.457 52.4251C158.265 52.903 161.111 53.32 163.969 53.5938C166.826 53.8646 169.696 54.0008 172.567 54.0019C175.431 54.0233 178.297 53.9249 181.151 53.7298C184.005 53.5347 186.853 53.2377 189.682 52.835C192.511 52.4323 195.319 51.9079 198.094 51.2564C200.869 50.605 203.612 49.8443 206.304 48.9494C208.997 48.0603 211.63 47.0215 214.189 45.8389C216.753 44.6639 219.218 43.3125 221.565 41.7959C223.912 40.2806 226.07 38.5272 228 36.568Z" fill="white"/>
</g>
<defs>
<clipPath id="clip0">
<rect width="228" height="54" fill="white" transform="matrix(-1 0 0 1 228 0)"/>
</clipPath>
</defs>
</svg>
